<?xml version="1.0" encoding="iso-8859-1"?>
<!-- Generator: Adobe Illustrator 25.2.0, SVG Export Plug-In . SVG Version: 6.00 Build 0)  -->
<svg version="1.1" id="Layer_1" xmlns="http://www.w3.org/2000/svg" xmlns:xlink="http://www.w3.org/1999/xlink" x="0px" y="0px"
	 viewBox="0 0 1000 1000" style="enable-background:new 0 0 1000 1000;" xml:space="preserve">
<g id="watermark">
	<g>
		<g>
			<g>
				<g>
					<polygon style="fill:#606060;" points="436.588,945.438 426.857,967.917 421.719,967.917 412.021,945.438 417.641,945.438 
						424.481,961.495 431.417,945.438 					"/>
				</g>
				<g>
					<path style="fill:#606060;" d="M453.638,960.435h-13.07c0.481,2.152,2.312,3.468,4.946,3.468c1.83,0,3.147-0.546,4.335-1.67
						l2.665,2.89c-1.606,1.831-4.014,2.794-7.129,2.794c-5.973,0-9.859-3.757-9.859-8.896c0-5.17,3.95-8.895,9.217-8.895
						c5.073,0,8.992,3.404,8.992,8.96C453.734,959.472,453.67,960.018,453.638,960.435 M440.503,957.513h8.51
						c-0.354-2.184-1.992-3.597-4.239-3.597C442.494,953.916,440.856,955.297,440.503,957.513"/>
				</g>
				<g>
					<path style="fill:#606060;" d="M455.787,959.022c0-5.202,4.014-8.895,9.634-8.895c3.629,0,6.487,1.574,7.739,4.4l-3.886,2.087
						c-0.932-1.638-2.312-2.376-3.886-2.376c-2.537,0-4.528,1.766-4.528,4.785c0,3.019,1.991,4.785,4.528,4.785
						c1.574,0,2.954-0.707,3.886-2.376l3.886,2.119c-1.252,2.762-4.111,4.367-7.739,4.367
						C459.801,967.917,455.787,964.225,455.787,959.022"/>
				</g>
				<g>
					<path style="fill:#606060;" d="M487.449,966.826c-1.028,0.739-2.537,1.092-4.079,1.092c-4.078,0-6.455-2.087-6.455-6.198
						v-7.097h-2.666v-3.854h2.666v-4.206h5.01v4.206h4.303v3.854h-4.303v7.033c0,1.477,0.802,2.28,2.151,2.28
						c0.738,0,1.477-0.224,2.023-0.642L487.449,966.826z"/>
				</g>
			</g>
			<g>
				<path style="fill:#606060;" d="M521.829,950.383v4.624c-0.417-0.032-0.738-0.064-1.124-0.064c-2.761,0-4.592,1.509-4.592,4.817
					v8.157h-5.01V950.64h4.785v2.28C517.109,951.25,519.164,950.383,521.829,950.383"/>
			</g>
			<g>
				<path style="fill:#606060;" d="M523.274,965.316l1.766-3.918c1.895,1.381,4.721,2.344,7.418,2.344
					c3.083,0,4.335-1.028,4.335-2.409c0-4.207-13.07-1.316-13.07-9.666c0-3.821,3.083-7.001,9.473-7.001
					c2.826,0,5.716,0.674,7.804,1.991l-1.606,3.95c-2.087-1.188-4.239-1.766-6.23-1.766c-3.083,0-4.271,1.156-4.271,2.569
					c0,4.143,13.07,1.284,13.07,9.538c0,3.758-3.115,6.969-9.537,6.969C528.861,967.917,525.265,966.858,523.274,965.316"/>
			</g>
			<g>
				<path style="fill:#606060;" d="M562,960.435h-13.07c0.481,2.152,2.312,3.468,4.946,3.468c1.83,0,3.147-0.546,4.335-1.67
					l2.666,2.89c-1.606,1.831-4.014,2.794-7.129,2.794c-5.973,0-9.859-3.757-9.859-8.896c0-5.17,3.95-8.895,9.216-8.895
					c5.074,0,8.992,3.404,8.992,8.96C562.097,959.472,562.032,960.018,562,960.435 M548.865,957.513h8.51
					c-0.353-2.184-1.991-3.597-4.239-3.597C550.856,953.916,549.219,955.297,548.865,957.513"/>
			</g>
			<g>
				<path style="fill:#606060;" d="M582.261,960.435h-13.07c0.481,2.152,2.312,3.468,4.945,3.468c1.831,0,3.147-0.546,4.335-1.67
					l2.666,2.89c-1.606,1.831-4.014,2.794-7.129,2.794c-5.973,0-9.859-3.757-9.859-8.896c0-5.17,3.95-8.895,9.217-8.895
					c5.074,0,8.992,3.404,8.992,8.96C582.358,959.472,582.294,960.018,582.261,960.435 M569.127,957.513h8.51
					c-0.353-2.184-1.991-3.597-4.239-3.597C571.118,953.916,569.48,955.297,569.127,957.513"/>
			</g>
			<g>
				<polygon style="fill:#606060;" points="593.114,961.141 590.705,963.518 590.705,967.917 585.696,967.917 585.696,944.09 
					590.705,944.09 590.705,957.577 598.027,950.64 604,950.64 596.807,957.962 604.642,967.917 598.573,967.917 				"/>
			</g>
			<g>
				<path style="fill:#606060;" d="M511.552,970.267L511.552,970.267l-5.005-5.005c-0.762,0.89-1.668,1.651-2.684,2.247
					c-0.162,0.12-0.326,0.238-0.495,0.348l5.297,5.297c0.797,0.797,2.09,0.797,2.888,0
					C512.349,972.357,512.349,971.064,511.552,970.267"/>
			</g>
			<g>
				<path style="fill:#F84D10;" d="M499.972,949.065c0.386-0.303,0.866-0.492,1.395-0.492c0.073,0,0.146,0.004,0.217,0.01
					c-0.375-0.274-0.837-0.436-1.337-0.436c-0.691,0-1.301,0.315-1.718,0.802c-0.089,0-0.175,0.01-0.264,0.013
					c0.069-0.134,0.112-0.284,0.112-0.446c0-0.409-0.25-0.76-0.605-0.908c0.152,0.221,0.242,0.489,0.242,0.778
					c0,0.214-0.053,0.415-0.141,0.596c-4.918,0.351-8.802,4.442-8.802,9.45c0,5.238,4.246,9.484,9.485,9.484
					c5.239,0,9.485-4.246,9.485-9.484C508.042,953.676,504.537,949.75,499.972,949.065 M496.471,951.536
					c0.761,0,1.477,0.196,2.099,0.541c0.654-0.428,1.435-0.677,2.273-0.677c1.244,0,2.359,0.547,3.121,1.411
					c-0.762-0.664-1.757-1.067-2.847-1.067c-0.785,0-1.523,0.21-2.159,0.576c-0.139,0.08-0.273,0.167-0.401,0.262
					c-0.114-0.083-0.233-0.163-0.357-0.235c-0.646-0.383-1.4-0.602-2.205-0.602c-0.525,0-1.028,0.094-1.495,0.266
					C495.092,951.708,495.762,951.536,496.471,951.536 M503.101,959.31c0.201,0.533,0.316,1.109,0.316,1.713
					c0,2.685-2.176,4.86-4.861,4.86c-2.684,0-4.86-2.176-4.86-4.86c0-0.604,0.115-1.179,0.316-1.713
					c-1.085-0.668-1.811-1.863-1.811-3.23c0-2.095,1.699-3.794,3.794-3.794c0.988,0,1.886,0.381,2.561,1
					c0.675-0.619,1.572-1,2.561-1c2.095,0,3.794,1.699,3.794,3.794C504.912,957.447,504.186,958.642,503.101,959.31"/>
			</g>
			<g>
				<path style="fill:#444444;" d="M502.916,955.745c0,0.87-0.706,1.576-1.576,1.576c-0.869,0-1.576-0.707-1.576-1.576
					c0-0.869,0.706-1.576,1.576-1.576c0.177,0,0.344,0.03,0.503,0.082c-0.052,0.109-0.079,0.231-0.079,0.358
					c0,0.478,0.387,0.865,0.865,0.865c0.088,0,0.174-0.013,0.256-0.038C502.904,955.535,502.916,955.639,502.916,955.745"/>
			</g>
			<g>
				<path style="fill:#444444;" d="M496.947,955.745c0,0.658-0.534,1.192-1.192,1.192c-0.658,0-1.192-0.534-1.192-1.192
					s0.534-1.192,1.192-1.192c0.133,0,0.26,0.022,0.38,0.062c-0.04,0.082-0.06,0.175-0.06,0.271c0,0.361,0.293,0.654,0.654,0.654
					c0.067,0,0.132-0.01,0.193-0.029C496.938,955.586,496.947,955.665,496.947,955.745"/>
			</g>
			<g>
				<g>
					<g>
						<rect x="487.589" y="957.09" style="fill:#606060;" width="1.077" height="1.077"/>
					</g>
					<g>
						<rect x="508.448" y="957.09" style="fill:#606060;" width="1.077" height="1.077"/>
					</g>
					<g>
						<path style="fill:#606060;" d="M509.109,957.531h-0.245c0-5.683-4.624-10.307-10.307-10.307
							c-5.683,0-10.307,4.624-10.307,10.307h-0.245c0-2.819,1.098-5.468,3.091-7.461c1.993-1.993,4.643-3.091,7.461-3.091
							c2.819,0,5.469,1.098,7.462,3.091C508.011,952.062,509.109,954.712,509.109,957.531"/>
					</g>
				</g>
				<g>
					<rect x="498.018" y="946.562" style="fill:#606060;" width="1.077" height="1.077"/>
				</g>
				<g>
					<rect x="491.163" y="946.979" style="fill:#606060;" width="14.788" height="0.245"/>
				</g>
				<g>
					<path style="fill:#606060;" d="M491.555,947.15c0,0.189-0.153,0.343-0.343,0.343c-0.189,0-0.343-0.154-0.343-0.343
						s0.153-0.343,0.343-0.343C491.401,946.807,491.555,946.961,491.555,947.15"/>
				</g>
				<g>
					<path style="fill:#606060;" d="M506.293,947.15c0,0.189-0.153,0.343-0.343,0.343c-0.189,0-0.343-0.154-0.343-0.343
						s0.153-0.343,0.343-0.343C506.14,946.807,506.293,946.961,506.293,947.15"/>
				</g>
			</g>
		</g>
		<g>
			<path style="fill:#606060;" d="M612.624,966.854c0,2.729-4.136,2.729-4.136,0C608.487,964.128,612.624,964.128,612.624,966.854z"
				/>
		</g>
		<g>
			<g>
				<g>
					<path style="fill:#606060;" d="M345.544,954.85l3.102,10.653l3.246-10.653h3.877l-4.94,14.245h-4.078l-1.465-4.193l-1.264-4.74
						l-1.263,4.74l-1.465,4.193h-4.078l-4.968-14.245h3.905l3.246,10.653l3.073-10.653H345.544z"/>
				</g>
				<g>
					<path style="fill:#606060;" d="M371.748,954.85l3.102,10.653l3.246-10.653h3.877l-4.94,14.245h-4.078l-1.465-4.193l-1.263-4.74
						l-1.264,4.74l-1.465,4.193h-4.078l-4.968-14.245h3.905l3.246,10.653l3.073-10.653H371.748z"/>
				</g>
				<g>
					<path style="fill:#606060;" d="M397.952,954.85l3.102,10.653l3.246-10.653h3.877l-4.94,14.245h-4.078l-1.465-4.193l-1.264-4.74
						l-1.263,4.74l-1.465,4.193h-4.078l-4.968-14.245h3.905l3.246,10.653l3.073-10.653H397.952z"/>
				</g>
			</g>
			<g>
				<path style="fill:#606060;" d="M414.089,967.048c0,2.729-4.136,2.729-4.136,0C409.953,964.321,414.089,964.321,414.089,967.048z
					"/>
			</g>
			<g>
				<path style="fill:#606060;" d="M627.243,966.854c-1.637,1.609-3.358,2.24-5.455,2.24c-4.106,0-7.525-2.469-7.525-7.494
					c0-5.025,3.419-7.497,7.525-7.497c2.011,0,3.561,0.575,5.112,2.097l-2.212,2.327c-0.832-0.748-1.866-1.12-2.841-1.12
					c-2.355,0-4.078,1.723-4.078,4.193c0,2.698,1.838,4.134,4.02,4.134c1.12,0,2.24-0.316,3.101-1.176L627.243,966.854z"/>
			</g>
			<g>
				<path style="fill:#606060;" d="M643.159,961.715c0,4.078-2.785,7.38-7.38,7.38c-4.595,0-7.352-3.302-7.352-7.38
					c0-4.05,2.815-7.38,7.324-7.38C640.26,954.335,643.159,957.665,643.159,961.715z M631.931,961.715
					c0,2.154,1.293,4.165,3.849,4.165c2.556,0,3.849-2.011,3.849-4.165c0-2.125-1.494-4.193-3.849-4.193
					C633.252,957.522,631.931,959.589,631.931,961.715z"/>
			</g>
			<g>
				<path style="fill:#606060;" d="M655.001,969.094v-7.581c0-1.868-0.977-3.561-2.902-3.561c-1.894,0-3.014,1.693-3.014,3.561
					v7.581h-3.505v-14.186h3.246l0.26,1.723c0.746-1.436,2.383-1.952,3.732-1.952c1.695,0,3.391,0.69,4.193,2.642
					c1.265-2.011,2.902-2.586,4.74-2.586c4.02,0,6.002,2.472,6.002,6.72v7.639h-3.505v-7.639c0-1.866-0.774-3.447-2.67-3.447
					c-1.894,0-3.073,1.637-3.073,3.505v7.581H655.001z"/>
			</g>
		</g>
	</g>
	<g>
		<path style="fill:#606060;" d="M333.081,934.351v-10.75h3.288c1.642,0,2.96,0.495,3.956,1.486s1.494,2.287,1.494,3.889
			c0,1.611-0.498,2.91-1.494,3.896c-0.996,0.985-2.314,1.479-3.956,1.479H333.081z M334.462,924.922v8.107h1.907
			c1.251,0,2.237-0.357,2.958-1.073s1.081-1.709,1.081-2.98c0-1.262-0.36-2.252-1.081-2.973s-1.707-1.081-2.958-1.081H334.462z"/>
		<path style="fill:#606060;" d="M342.57,930.672c0-1.131,0.355-2.066,1.066-2.808c0.721-0.74,1.626-1.111,2.718-1.111
			c1.091,0,1.992,0.371,2.703,1.111c0.721,0.741,1.081,1.677,1.081,2.808c0,1.142-0.36,2.077-1.081,2.808
			c-0.711,0.741-1.612,1.111-2.703,1.111c-1.091,0-1.997-0.37-2.718-1.111C342.925,932.739,342.57,931.804,342.57,930.672z
			 M343.952,930.672c0,0.791,0.23,1.432,0.69,1.922s1.031,0.736,1.712,0.736s1.251-0.246,1.711-0.736s0.691-1.131,0.691-1.922
			c0-0.78-0.23-1.416-0.691-1.906c-0.471-0.501-1.041-0.751-1.711-0.751c-0.671,0-1.241,0.25-1.712,0.751
			C344.182,929.256,343.952,929.892,343.952,930.672z"/>
		<path style="fill:#606060;" d="M361.668,926.993l-2.372,7.357h-1.412l-1.832-5.646l-1.817,5.646h-1.396l-2.372-7.357h1.441
			l1.637,5.556h0.015l1.817-5.556h1.426l1.817,5.556h0.015l1.622-5.556H361.668z"/>
		<path style="fill:#606060;" d="M362.569,926.993h1.321v1.021h0.06c0.21-0.36,0.533-0.661,0.968-0.901s0.888-0.36,1.359-0.36
			c0.901,0,1.594,0.258,2.08,0.773c0.485,0.516,0.728,1.249,0.728,2.2v4.624h-1.381v-4.534c-0.03-1.201-0.636-1.802-1.816-1.802
			c-0.551,0-1.011,0.223-1.381,0.668c-0.371,0.445-0.556,0.979-0.556,1.599v4.069h-1.381V926.993z"/>
		<path style="fill:#606060;" d="M372.088,923.601v10.75h-1.381v-10.75H372.088z"/>
		<path style="fill:#606060;" d="M373.275,930.672c0-1.131,0.355-2.066,1.066-2.808c0.721-0.74,1.626-1.111,2.718-1.111
			c1.091,0,1.992,0.371,2.703,1.111c0.721,0.741,1.081,1.677,1.081,2.808c0,1.142-0.36,2.077-1.081,2.808
			c-0.711,0.741-1.612,1.111-2.703,1.111c-1.091,0-1.997-0.37-2.718-1.111C373.63,932.739,373.275,931.804,373.275,930.672z
			 M374.656,930.672c0,0.791,0.23,1.432,0.69,1.922s1.031,0.736,1.712,0.736s1.251-0.246,1.711-0.736s0.691-1.131,0.691-1.922
			c0-0.78-0.23-1.416-0.691-1.906c-0.471-0.501-1.041-0.751-1.711-0.751c-0.671,0-1.241,0.25-1.712,0.751
			C374.886,929.256,374.656,929.892,374.656,930.672z"/>
		<path style="fill:#606060;" d="M384.896,926.753c1.021,0,1.827,0.273,2.417,0.818c0.59,0.546,0.886,1.294,0.886,2.245v4.534
			h-1.321v-1.021h-0.06c-0.57,0.841-1.331,1.261-2.282,1.261c-0.811,0-1.489-0.24-2.034-0.721c-0.546-0.48-0.818-1.081-0.818-1.802
			c0-0.761,0.288-1.366,0.863-1.816c0.576-0.451,1.344-0.676,2.305-0.676c0.821,0,1.496,0.15,2.027,0.45v-0.315
			c0-0.48-0.19-0.888-0.57-1.224c-0.381-0.335-0.826-0.503-1.336-0.503c-0.771,0-1.381,0.325-1.832,0.977l-1.216-0.767
			C382.594,927.233,383.585,926.753,384.896,926.753z M383.109,932.099c0,0.36,0.152,0.66,0.458,0.9
			c0.305,0.24,0.663,0.36,1.074,0.36c0.58,0,1.098-0.215,1.554-0.646c0.456-0.43,0.683-0.936,0.683-1.517
			c-0.43-0.34-1.031-0.51-1.802-0.51c-0.561,0-1.028,0.135-1.404,0.405C383.297,931.362,383.109,931.698,383.109,932.099z"/>
		<path style="fill:#606060;" d="M392.764,934.591c-0.961,0-1.787-0.38-2.478-1.141c-0.681-0.771-1.021-1.697-1.021-2.778
			s0.34-2.007,1.021-2.777c0.69-0.761,1.517-1.142,2.478-1.142c0.541,0,1.033,0.115,1.479,0.346s0.789,0.535,1.029,0.916h0.06
			l-0.06-1.021v-3.393h1.381v10.75h-1.321v-1.021h-0.06c-0.24,0.38-0.583,0.686-1.029,0.915
			C393.797,934.476,393.305,934.591,392.764,934.591z M392.989,933.33c0.681,0,1.236-0.246,1.667-0.736
			c0.45-0.49,0.676-1.131,0.676-1.922c0-0.771-0.226-1.406-0.676-1.906c-0.44-0.501-0.996-0.751-1.667-0.751
			c-0.661,0-1.216,0.25-1.667,0.751c-0.451,0.5-0.676,1.136-0.676,1.906c0,0.781,0.225,1.417,0.676,1.907
			C391.773,933.079,392.329,933.33,392.989,933.33z"/>
		<path style="fill:#606060;" d="M401.876,934.351v-10.75h3.784c0.51,0,0.988,0.082,1.434,0.247
			c0.445,0.166,0.833,0.398,1.164,0.698c0.331,0.301,0.591,0.658,0.781,1.074c0.19,0.415,0.286,0.873,0.286,1.373
			c0,0.511-0.095,0.974-0.286,1.39c-0.19,0.415-0.45,0.772-0.781,1.073c-0.33,0.3-0.718,0.533-1.164,0.698s-0.923,0.247-1.434,0.247
			h-1.757v3.949H401.876z M405.689,928.48c0.531,0,0.931-0.15,1.201-0.451c0.271-0.3,0.405-0.646,0.405-1.036
			c0-0.189-0.032-0.375-0.097-0.555c-0.065-0.181-0.166-0.338-0.3-0.474c-0.135-0.135-0.303-0.242-0.503-0.322
			s-0.435-0.12-0.706-0.12h-1.787v2.958H405.689z"/>
		<path style="fill:#606060;" d="M410.764,923.601h2.357l4.324,7.207h0.12l-0.12-2.072v-5.135h2.012v10.75h-2.132l-4.564-7.612
			h-0.12l0.12,2.072v5.54h-1.997V923.601z"/>
		<path style="fill:#606060;" d="M426.574,928.45h5.27c0.03,0.12,0.055,0.265,0.075,0.436c0.02,0.17,0.03,0.34,0.03,0.51
			c0,0.691-0.105,1.342-0.315,1.952c-0.21,0.61-0.541,1.156-0.991,1.637c-0.48,0.511-1.056,0.906-1.727,1.187
			c-0.671,0.279-1.437,0.42-2.297,0.42c-0.781,0-1.517-0.141-2.207-0.42c-0.691-0.28-1.292-0.671-1.802-1.172
			c-0.511-0.5-0.916-1.093-1.216-1.779c-0.3-0.686-0.45-1.434-0.45-2.244s0.15-1.559,0.45-2.245c0.3-0.686,0.706-1.278,1.216-1.779
			c0.51-0.5,1.111-0.891,1.802-1.171c0.69-0.28,1.426-0.42,2.207-0.42c0.871,0,1.649,0.15,2.334,0.45
			c0.686,0.301,1.274,0.716,1.764,1.246l-1.396,1.366c-0.351-0.37-0.741-0.653-1.171-0.848c-0.43-0.195-0.946-0.293-1.546-0.293
			c-0.49,0-0.956,0.088-1.396,0.263c-0.441,0.175-0.826,0.423-1.156,0.743c-0.331,0.32-0.593,0.708-0.789,1.163
			c-0.195,0.456-0.292,0.964-0.292,1.524s0.098,1.068,0.292,1.523c0.195,0.456,0.46,0.844,0.796,1.164s0.723,0.568,1.164,0.743
			s0.911,0.263,1.412,0.263c0.57,0,1.053-0.083,1.449-0.248s0.733-0.377,1.014-0.638c0.2-0.181,0.373-0.408,0.518-0.684
			c0.145-0.274,0.258-0.583,0.338-0.923h-3.378V928.45z"/>
		<path style="fill:#606060;" d="M436.934,934.351v-10.75h3.784c0.51,0,0.988,0.082,1.434,0.247
			c0.445,0.166,0.833,0.398,1.164,0.698c0.331,0.301,0.591,0.658,0.781,1.074c0.19,0.415,0.286,0.873,0.286,1.373
			c0,0.511-0.095,0.974-0.286,1.39c-0.19,0.415-0.45,0.772-0.781,1.073c-0.33,0.3-0.718,0.533-1.164,0.698s-0.923,0.247-1.434,0.247
			h-1.757v3.949H436.934z M440.747,928.48c0.531,0,0.931-0.15,1.201-0.451c0.271-0.3,0.405-0.646,0.405-1.036
			c0-0.189-0.032-0.375-0.097-0.555c-0.065-0.181-0.166-0.338-0.3-0.474c-0.135-0.135-0.303-0.242-0.503-0.322
			s-0.435-0.12-0.706-0.12h-1.787v2.958H440.747z"/>
		<path style="fill:#606060;" d="M449.11,934.591c-0.46,0-0.901-0.065-1.321-0.195s-0.806-0.325-1.156-0.585
			c-0.35-0.261-0.655-0.578-0.916-0.954c-0.261-0.375-0.466-0.812-0.616-1.313l1.907-0.751c0.14,0.541,0.385,0.989,0.736,1.344
			c0.35,0.355,0.811,0.533,1.381,0.533c0.21,0,0.413-0.027,0.608-0.083c0.195-0.055,0.37-0.135,0.525-0.24
			c0.155-0.104,0.278-0.237,0.368-0.397c0.09-0.16,0.135-0.346,0.135-0.556c0-0.2-0.035-0.38-0.105-0.54s-0.188-0.311-0.353-0.451
			c-0.166-0.14-0.381-0.274-0.646-0.405c-0.265-0.13-0.593-0.265-0.983-0.405l-0.661-0.24c-0.29-0.1-0.583-0.234-0.878-0.405
			c-0.295-0.17-0.563-0.375-0.804-0.615s-0.438-0.523-0.593-0.849c-0.155-0.325-0.233-0.693-0.233-1.104
			c0-0.42,0.083-0.813,0.248-1.179c0.165-0.365,0.4-0.686,0.706-0.961c0.305-0.275,0.67-0.49,1.096-0.646
			c0.426-0.155,0.898-0.232,1.419-0.232c0.541,0,1.008,0.072,1.404,0.218c0.396,0.145,0.73,0.33,1.006,0.556
			c0.275,0.225,0.498,0.473,0.668,0.743c0.17,0.27,0.295,0.525,0.375,0.766l-1.787,0.75c-0.1-0.3-0.283-0.57-0.548-0.811
			s-0.628-0.36-1.088-0.36c-0.441,0-0.806,0.103-1.096,0.308c-0.291,0.206-0.436,0.474-0.436,0.804c0,0.32,0.14,0.593,0.42,0.818
			c0.28,0.225,0.726,0.442,1.336,0.653l0.676,0.225c0.43,0.15,0.823,0.323,1.179,0.519c0.355,0.195,0.661,0.428,0.916,0.698
			c0.255,0.27,0.451,0.578,0.585,0.923c0.135,0.346,0.203,0.743,0.203,1.193c0,0.562-0.113,1.044-0.338,1.449
			c-0.226,0.405-0.513,0.738-0.863,0.999c-0.351,0.26-0.746,0.455-1.187,0.585S449.53,934.591,449.11,934.591z"/>
		<path style="fill:#606060;" d="M454.455,923.601h3.633c0.851,0,1.617,0.13,2.297,0.391c0.681,0.26,1.261,0.628,1.742,1.104
			c0.48,0.475,0.848,1.043,1.104,1.704c0.255,0.66,0.383,1.386,0.383,2.177c0,0.801-0.127,1.531-0.383,2.192
			c-0.255,0.66-0.623,1.226-1.104,1.696s-1.061,0.836-1.742,1.096c-0.681,0.261-1.447,0.391-2.297,0.391h-3.633V923.601z
			 M457.999,932.429c0.59,0,1.111-0.083,1.562-0.248c0.45-0.165,0.826-0.397,1.126-0.698c0.3-0.3,0.525-0.662,0.676-1.088
			c0.15-0.426,0.225-0.898,0.225-1.419s-0.075-0.993-0.225-1.419c-0.15-0.426-0.375-0.788-0.676-1.089
			c-0.3-0.3-0.676-0.532-1.126-0.698c-0.451-0.165-0.971-0.247-1.562-0.247h-1.517v6.906H457.999z"/>
		<path style="fill:#606060;" d="M471.391,934.591c-0.46,0-0.901-0.065-1.321-0.195s-0.806-0.325-1.156-0.585
			c-0.35-0.261-0.655-0.578-0.916-0.954c-0.261-0.375-0.466-0.812-0.616-1.313l1.907-0.751c0.14,0.541,0.385,0.989,0.736,1.344
			c0.35,0.355,0.811,0.533,1.381,0.533c0.21,0,0.413-0.027,0.608-0.083c0.195-0.055,0.37-0.135,0.525-0.24
			c0.155-0.104,0.278-0.237,0.368-0.397c0.09-0.16,0.135-0.346,0.135-0.556c0-0.2-0.035-0.38-0.105-0.54s-0.188-0.311-0.353-0.451
			c-0.166-0.14-0.381-0.274-0.646-0.405c-0.265-0.13-0.593-0.265-0.983-0.405l-0.661-0.24c-0.29-0.1-0.583-0.234-0.878-0.405
			c-0.295-0.17-0.563-0.375-0.804-0.615s-0.438-0.523-0.593-0.849c-0.155-0.325-0.233-0.693-0.233-1.104
			c0-0.42,0.083-0.813,0.248-1.179c0.165-0.365,0.4-0.686,0.706-0.961c0.305-0.275,0.67-0.49,1.096-0.646
			c0.426-0.155,0.898-0.232,1.419-0.232c0.541,0,1.008,0.072,1.404,0.218c0.396,0.145,0.73,0.33,1.006,0.556
			c0.275,0.225,0.498,0.473,0.668,0.743c0.17,0.27,0.295,0.525,0.375,0.766l-1.787,0.75c-0.1-0.3-0.283-0.57-0.548-0.811
			s-0.628-0.36-1.088-0.36c-0.441,0-0.806,0.103-1.096,0.308c-0.291,0.206-0.436,0.474-0.436,0.804c0,0.32,0.14,0.593,0.42,0.818
			c0.28,0.225,0.726,0.442,1.336,0.653l0.676,0.225c0.43,0.15,0.823,0.323,1.179,0.519c0.355,0.195,0.661,0.428,0.916,0.698
			c0.255,0.27,0.451,0.578,0.585,0.923c0.135,0.346,0.203,0.743,0.203,1.193c0,0.562-0.113,1.044-0.338,1.449
			c-0.226,0.405-0.513,0.738-0.863,0.999c-0.351,0.26-0.746,0.455-1.187,0.585S471.811,934.591,471.391,934.591z"/>
		<path style="fill:#606060;" d="M475.685,923.601h2.192l2.222,6.471l0.391,1.382h0.12l0.42-1.382l2.312-6.471h2.192l-3.918,10.75
			h-2.132L475.685,923.601z"/>
		<path style="fill:#606060;" d="M491.45,928.45h5.27c0.03,0.12,0.055,0.265,0.075,0.436c0.02,0.17,0.03,0.34,0.03,0.51
			c0,0.691-0.105,1.342-0.315,1.952c-0.21,0.61-0.541,1.156-0.991,1.637c-0.48,0.511-1.056,0.906-1.727,1.187
			c-0.671,0.279-1.437,0.42-2.297,0.42c-0.781,0-1.517-0.141-2.207-0.42c-0.691-0.28-1.292-0.671-1.802-1.172
			c-0.511-0.5-0.916-1.093-1.216-1.779c-0.3-0.686-0.45-1.434-0.45-2.244s0.15-1.559,0.45-2.245c0.3-0.686,0.706-1.278,1.216-1.779
			c0.51-0.5,1.111-0.891,1.802-1.171c0.69-0.28,1.426-0.42,2.207-0.42c0.871,0,1.649,0.15,2.334,0.45
			c0.686,0.301,1.274,0.716,1.764,1.246l-1.396,1.366c-0.351-0.37-0.741-0.653-1.171-0.848c-0.43-0.195-0.946-0.293-1.546-0.293
			c-0.49,0-0.956,0.088-1.396,0.263c-0.441,0.175-0.826,0.423-1.156,0.743c-0.331,0.32-0.593,0.708-0.789,1.163
			c-0.195,0.456-0.292,0.964-0.292,1.524s0.098,1.068,0.292,1.523c0.195,0.456,0.46,0.844,0.796,1.164s0.723,0.568,1.164,0.743
			s0.911,0.263,1.412,0.263c0.57,0,1.053-0.083,1.449-0.248s0.733-0.377,1.014-0.638c0.2-0.181,0.373-0.408,0.518-0.684
			c0.145-0.274,0.258-0.583,0.338-0.923h-3.378V928.45z"/>
		<path style="fill:#606060;" d="M503.837,925.522v2.492h4.309v1.922h-4.309v2.492h4.789v1.922h-6.816v-10.75h6.816v1.922H503.837z"
			/>
		<path style="fill:#606060;" d="M510.487,934.351v-10.75h3.783c0.511,0,0.988,0.082,1.435,0.247
			c0.445,0.166,0.833,0.398,1.163,0.698c0.33,0.301,0.591,0.658,0.781,1.074c0.189,0.415,0.285,0.873,0.285,1.373
			c0,0.511-0.096,0.974-0.285,1.39c-0.19,0.415-0.451,0.772-0.781,1.073c-0.33,0.3-0.718,0.533-1.163,0.698
			c-0.446,0.165-0.924,0.247-1.435,0.247h-1.756v3.949H510.487z M514.301,928.48c0.53,0,0.931-0.15,1.201-0.451
			c0.271-0.3,0.405-0.646,0.405-1.036c0-0.189-0.032-0.375-0.098-0.555c-0.065-0.181-0.165-0.338-0.3-0.474
			c-0.136-0.135-0.303-0.242-0.503-0.322s-0.436-0.12-0.706-0.12h-1.786v2.958H514.301z"/>
		<path style="fill:#606060;" d="M522.664,934.591c-0.461,0-0.9-0.065-1.321-0.195c-0.42-0.13-0.806-0.325-1.156-0.585
			c-0.351-0.261-0.655-0.578-0.916-0.954c-0.26-0.375-0.465-0.812-0.615-1.313l1.907-0.751c0.14,0.541,0.385,0.989,0.735,1.344
			c0.351,0.355,0.811,0.533,1.381,0.533c0.211,0,0.413-0.027,0.608-0.083c0.195-0.055,0.37-0.135,0.525-0.24
			c0.155-0.104,0.278-0.237,0.368-0.397s0.135-0.346,0.135-0.556c0-0.2-0.035-0.38-0.104-0.54c-0.07-0.16-0.188-0.311-0.354-0.451
			c-0.165-0.14-0.38-0.274-0.646-0.405c-0.266-0.13-0.593-0.265-0.983-0.405l-0.66-0.24c-0.291-0.1-0.584-0.234-0.879-0.405
			c-0.295-0.17-0.562-0.375-0.803-0.615s-0.438-0.523-0.594-0.849s-0.232-0.693-0.232-1.104c0-0.42,0.083-0.813,0.248-1.179
			s0.4-0.686,0.705-0.961c0.306-0.275,0.671-0.49,1.097-0.646c0.425-0.155,0.898-0.232,1.419-0.232c0.54,0,1.008,0.072,1.403,0.218
			c0.396,0.145,0.73,0.33,1.006,0.556c0.275,0.225,0.498,0.473,0.668,0.743c0.171,0.27,0.296,0.525,0.376,0.766l-1.787,0.75
			c-0.1-0.3-0.282-0.57-0.548-0.811s-0.628-0.36-1.089-0.36c-0.44,0-0.806,0.103-1.096,0.308c-0.29,0.206-0.436,0.474-0.436,0.804
			c0,0.32,0.141,0.593,0.421,0.818c0.28,0.225,0.726,0.442,1.336,0.653l0.676,0.225c0.43,0.15,0.823,0.323,1.179,0.519
			c0.354,0.195,0.66,0.428,0.916,0.698c0.255,0.27,0.45,0.578,0.585,0.923c0.136,0.346,0.203,0.743,0.203,1.193
			c0,0.562-0.113,1.044-0.338,1.449c-0.226,0.405-0.514,0.738-0.863,0.999c-0.351,0.26-0.746,0.455-1.187,0.585
			S523.085,934.591,522.664,934.591z"/>
		<path style="fill:#606060;" d="M535.996,929.741v4.609h-1.381v-10.75h6.276v1.321h-4.896v3.528h4.415v1.291H535.996z"/>
		<path style="fill:#606060;" d="M541.341,930.672c0-1.131,0.355-2.066,1.066-2.808c0.721-0.74,1.627-1.111,2.718-1.111
			s1.991,0.371,2.702,1.111c0.721,0.741,1.081,1.677,1.081,2.808c0,1.142-0.36,2.077-1.081,2.808
			c-0.711,0.741-1.611,1.111-2.702,1.111s-1.997-0.37-2.718-1.111C541.696,932.739,541.341,931.804,541.341,930.672z
			 M542.723,930.672c0,0.791,0.23,1.432,0.69,1.922c0.461,0.49,1.031,0.736,1.712,0.736s1.251-0.246,1.712-0.736
			c0.46-0.49,0.69-1.131,0.69-1.922c0-0.78-0.23-1.416-0.69-1.906c-0.471-0.501-1.042-0.751-1.712-0.751
			c-0.671,0-1.241,0.25-1.712,0.751C542.953,929.256,542.723,929.892,542.723,930.672z"/>
		<path style="fill:#606060;" d="M551.4,934.351h-1.381v-7.357h1.321v1.201h0.06c0.141-0.39,0.429-0.723,0.863-0.998
			c0.436-0.275,0.864-0.413,1.284-0.413c0.4,0,0.74,0.061,1.021,0.181l-0.42,1.336c-0.17-0.07-0.44-0.105-0.811-0.105
			c-0.521,0-0.974,0.211-1.359,0.631c-0.385,0.421-0.578,0.911-0.578,1.472V934.351z"/>
		<path style="fill:#606060;" d="M556.851,934.351h-1.381v-7.357h1.321v1.021h0.06c0.211-0.36,0.533-0.661,0.969-0.901
			s0.868-0.36,1.299-0.36c0.54,0,1.016,0.126,1.427,0.376c0.41,0.25,0.71,0.596,0.9,1.036c0.61-0.941,1.456-1.412,2.537-1.412
			c0.851,0,1.507,0.261,1.967,0.781c0.461,0.521,0.691,1.261,0.691,2.222v4.595h-1.382v-4.384c0-0.691-0.125-1.188-0.375-1.494
			s-0.671-0.458-1.262-0.458c-0.53,0-0.976,0.226-1.336,0.676s-0.54,0.98-0.54,1.591v4.069h-1.382v-4.384
			c0-0.691-0.125-1.188-0.375-1.494c-0.251-0.306-0.671-0.458-1.262-0.458c-0.53,0-0.976,0.226-1.336,0.676s-0.541,0.98-0.541,1.591
			V934.351z"/>
		<path style="fill:#606060;" d="M570.979,926.753c1.021,0,1.826,0.273,2.417,0.818c0.591,0.546,0.886,1.294,0.886,2.245v4.534
			h-1.321v-1.021h-0.06c-0.571,0.841-1.332,1.261-2.282,1.261c-0.812,0-1.489-0.24-2.035-0.721c-0.545-0.48-0.818-1.081-0.818-1.802
			c0-0.761,0.288-1.366,0.864-1.816c0.575-0.451,1.344-0.676,2.305-0.676c0.82,0,1.496,0.15,2.026,0.45v-0.315
			c0-0.48-0.19-0.888-0.57-1.224c-0.381-0.335-0.826-0.503-1.336-0.503c-0.771,0-1.382,0.325-1.832,0.977l-1.217-0.767
			C568.677,927.233,569.668,926.753,570.979,926.753z M569.192,932.099c0,0.36,0.152,0.66,0.458,0.9s0.663,0.36,1.073,0.36
			c0.581,0,1.099-0.215,1.555-0.646c0.455-0.43,0.683-0.936,0.683-1.517c-0.431-0.34-1.031-0.51-1.802-0.51
			c-0.561,0-1.028,0.135-1.403,0.405C569.38,931.362,569.192,931.698,569.192,932.099z"/>
		<path style="fill:#606060;" d="M578.607,934.471c-0.601,0-1.099-0.186-1.494-0.556s-0.599-0.886-0.608-1.546v-4.114h-1.291v-1.262
			h1.291v-2.252h1.382v2.252h1.802v1.262h-1.802v3.663c0,0.491,0.095,0.824,0.285,0.999c0.189,0.175,0.405,0.263,0.646,0.263
			c0.11,0,0.218-0.013,0.322-0.038c0.105-0.024,0.203-0.058,0.293-0.098l0.436,1.231
			C579.508,934.405,579.088,934.471,578.607,934.471z"/>
		<path style="fill:#606060;" d="M586.788,932.309c0,0.641-0.28,1.182-0.841,1.622c-0.561,0.439-1.266,0.66-2.116,0.66
			c-0.741,0-1.392-0.192-1.952-0.578c-0.561-0.385-0.961-0.894-1.201-1.523l1.231-0.526c0.18,0.441,0.442,0.784,0.788,1.029
			c0.345,0.245,0.723,0.367,1.134,0.367c0.44,0,0.808-0.095,1.104-0.285c0.295-0.189,0.442-0.415,0.442-0.676
			c0-0.47-0.36-0.815-1.081-1.036l-1.261-0.314c-1.432-0.36-2.147-1.052-2.147-2.072c0-0.671,0.272-1.209,0.818-1.614
			s1.244-0.608,2.095-0.608c0.65,0,1.238,0.155,1.764,0.466c0.526,0.311,0.894,0.726,1.104,1.246l-1.23,0.511
			c-0.141-0.311-0.368-0.553-0.684-0.729c-0.315-0.175-0.668-0.263-1.059-0.263c-0.36,0-0.683,0.09-0.968,0.271
			c-0.285,0.18-0.429,0.4-0.429,0.66c0,0.421,0.396,0.721,1.187,0.901l1.111,0.285C586.058,930.462,586.788,931.197,586.788,932.309
			z"/>
		<path style="fill:#606060;" d="M592.913,934.351h-1.381v-10.75h1.381V934.351z"/>
		<path style="fill:#606060;" d="M594.835,926.993h1.321v1.021h0.06c0.211-0.36,0.533-0.661,0.969-0.901s0.889-0.36,1.359-0.36
			c0.9,0,1.594,0.258,2.079,0.773s0.729,1.249,0.729,2.2v4.624h-1.382v-4.534c-0.03-1.201-0.636-1.802-1.816-1.802
			c-0.551,0-1.012,0.223-1.382,0.668s-0.556,0.979-0.556,1.599v4.069h-1.381V926.993z"/>
		<path style="fill:#606060;" d="M612.702,931.482c0,0.941-0.346,1.697-1.036,2.268c-0.701,0.561-1.552,0.841-2.553,0.841
			c-0.891,0-1.677-0.26-2.357-0.78s-1.151-1.231-1.411-2.133l1.321-0.54c0.09,0.32,0.215,0.61,0.375,0.871
			c0.16,0.26,0.348,0.482,0.563,0.668c0.215,0.186,0.453,0.33,0.713,0.436c0.261,0.104,0.535,0.157,0.826,0.157
			c0.631,0,1.146-0.162,1.546-0.488c0.4-0.325,0.601-0.758,0.601-1.299c0-0.45-0.165-0.835-0.495-1.155
			c-0.311-0.311-0.891-0.61-1.741-0.901c-0.861-0.31-1.396-0.521-1.607-0.631c-1.141-0.58-1.711-1.436-1.711-2.567
			c0-0.79,0.315-1.466,0.945-2.026c0.641-0.561,1.427-0.841,2.357-0.841c0.82,0,1.531,0.21,2.132,0.631
			c0.601,0.41,1.001,0.926,1.201,1.546l-1.291,0.541c-0.12-0.4-0.357-0.733-0.713-0.999c-0.355-0.265-0.788-0.397-1.299-0.397
			c-0.541,0-0.996,0.149-1.366,0.45c-0.371,0.28-0.556,0.646-0.556,1.096c0,0.371,0.145,0.691,0.436,0.961
			c0.32,0.271,1.016,0.591,2.087,0.961c1.091,0.371,1.869,0.823,2.335,1.359C612.469,930.044,612.702,930.702,612.702,931.482z"/>
		<path style="fill:#606060;" d="M615.915,924.456c0,0.271-0.096,0.501-0.286,0.69c-0.189,0.19-0.42,0.285-0.69,0.285
			s-0.5-0.095-0.69-0.285c-0.19-0.189-0.285-0.42-0.285-0.69s0.095-0.5,0.285-0.69s0.42-0.285,0.69-0.285s0.501,0.095,0.69,0.285
			C615.819,923.956,615.915,924.186,615.915,924.456z M615.629,926.993v7.357h-1.381v-7.357H615.629z"/>
		<path style="fill:#606060;" d="M617.431,926.993h1.321v1.021h0.06c0.211-0.36,0.533-0.661,0.969-0.901s0.889-0.36,1.359-0.36
			c0.9,0,1.594,0.258,2.079,0.773s0.729,1.249,0.729,2.2v4.624h-1.382v-4.534c-0.03-1.201-0.636-1.802-1.816-1.802
			c-0.551,0-1.012,0.223-1.382,0.668s-0.556,0.979-0.556,1.599v4.069h-1.381V926.993z"/>
		<path style="fill:#606060;" d="M628.751,937.834c-0.41,0-0.796-0.053-1.156-0.158c-0.36-0.104-0.688-0.252-0.983-0.442
			c-0.295-0.19-0.548-0.416-0.758-0.676c-0.21-0.261-0.37-0.551-0.48-0.871l1.307-0.54c0.149,0.43,0.41,0.775,0.78,1.036
			c0.37,0.26,0.801,0.39,1.291,0.39c0.751,0,1.337-0.225,1.757-0.675c0.421-0.451,0.631-1.071,0.631-1.862v-0.705h-0.061
			c-0.26,0.39-0.613,0.697-1.059,0.923s-0.928,0.338-1.448,0.338c-0.961,0-1.787-0.375-2.478-1.126
			c-0.681-0.771-1.021-1.701-1.021-2.793c0-1.091,0.341-2.017,1.021-2.777c0.69-0.761,1.517-1.142,2.478-1.142
			c0.521,0,1.003,0.113,1.448,0.338c0.445,0.226,0.799,0.533,1.059,0.924h0.061v-1.021h1.321v7.042c0,1.181-0.336,2.107-1.006,2.777
			C630.773,937.493,629.872,937.834,628.751,937.834z M628.796,933.33c0.681,0,1.236-0.246,1.667-0.736
			c0.45-0.49,0.676-1.131,0.676-1.922c0-0.771-0.226-1.406-0.676-1.906c-0.44-0.501-0.996-0.751-1.667-0.751
			c-0.66,0-1.216,0.25-1.666,0.751c-0.45,0.5-0.676,1.136-0.676,1.906c0,0.781,0.226,1.417,0.676,1.907
			C627.58,933.079,628.136,933.33,628.796,933.33z"/>
		<path style="fill:#606060;" d="M635.522,923.601v10.75h-1.381v-10.75H635.522z"/>
		<path style="fill:#606060;" d="M640.433,934.591c-1.081,0-1.972-0.37-2.672-1.111c-0.701-0.74-1.052-1.676-1.052-2.808
			c0-1.121,0.341-2.054,1.021-2.8s1.552-1.119,2.612-1.119c1.091,0,1.96,0.354,2.605,1.059c0.646,0.706,0.968,1.694,0.968,2.966
			l-0.015,0.15h-5.78c0.02,0.721,0.26,1.301,0.721,1.741c0.46,0.44,1.011,0.661,1.651,0.661c0.881,0,1.571-0.44,2.072-1.321
			l1.23,0.601c-0.33,0.62-0.788,1.105-1.373,1.456C641.837,934.416,641.174,934.591,640.433,934.591z M638.226,929.786h4.22
			c-0.04-0.511-0.248-0.934-0.623-1.269c-0.376-0.335-0.879-0.503-1.51-0.503c-0.521,0-0.968,0.16-1.344,0.48
			C638.594,928.815,638.346,929.246,638.226,929.786z"/>
		<path style="fill:#606060;" d="M655.507,934.351h-7.387v-1.441l5.721-7.987h-5.48v-1.321h7.087v1.441l-5.721,7.987h5.78V934.351z"
			/>
		<path style="fill:#606060;" d="M658.735,924.456c0,0.271-0.096,0.501-0.286,0.69c-0.189,0.19-0.42,0.285-0.69,0.285
			s-0.5-0.095-0.69-0.285c-0.19-0.189-0.285-0.42-0.285-0.69s0.095-0.5,0.285-0.69s0.42-0.285,0.69-0.285s0.501,0.095,0.69,0.285
			C658.64,923.956,658.735,924.186,658.735,924.456z M658.449,926.993v7.357h-1.381v-7.357H658.449z"/>
		<path style="fill:#606060;" d="M664.08,934.591c-0.541,0-1.034-0.115-1.479-0.346c-0.445-0.229-0.788-0.535-1.028-0.915h-0.061
			l0.061,1.021v3.243h-1.382v-10.601h1.321v1.021h0.061c0.24-0.381,0.583-0.686,1.028-0.916s0.938-0.346,1.479-0.346
			c0.971,0,1.791,0.381,2.462,1.142c0.69,0.771,1.036,1.696,1.036,2.777c0,1.092-0.346,2.018-1.036,2.778
			C665.871,934.211,665.051,934.591,664.08,934.591z M663.854,933.33c0.66,0,1.216-0.251,1.666-0.751
			c0.451-0.49,0.676-1.126,0.676-1.907c0-0.771-0.225-1.406-0.676-1.906c-0.45-0.501-1.006-0.751-1.666-0.751
			c-0.671,0-1.231,0.25-1.682,0.751c-0.44,0.5-0.661,1.136-0.661,1.906c0,0.781,0.221,1.422,0.661,1.922
			C662.623,933.084,663.184,933.33,663.854,933.33z"/>
	</g>
</g>
<g>
</g>
<g id="Layer_1_1_">
	<g>
		<g>
			<g>
				<path style="fill:#002856;" d="M403.525,453.487c2.449,0,5.708,0.277,9.1,0.277c4.417-0.072,6.517-0.133,8.147-0.205
					c0.266,0.133,0.338,1.701,0,1.906c-1.558,0.338-2.511,0.543-3.392,0.82c-1.086,0.338-1.291,1.219-1.014,2.654
					c1.363,5.841,5.093,19.152,7.399,27.166c0,0,0.133,0,0.277-0.072c2.921-8.013,8.495-23.774,10.319-30.363
					c0.953,0.133,2.787,0.133,3.597,0c1.629,6.118,8.423,25.198,10.596,30.906c0.072,0.072,0.266,0,0.338-0.072
					c1.834-5.636,6.312-20.31,7.542-25.874c0.543-2.306,0.615-3.873-1.424-4.417c-1.086-0.277-2.101-0.471-4.007-0.748
					c-0.338-0.277-0.277-1.763,0-1.906c1.629,0,5.093,0.205,7.88,0.205c4.478,0,6.384-0.205,7.808-0.205
					c0.266,0.205,0.266,1.701,0,1.906c-1.363,0.277-2.244,0.471-2.992,0.748c-1.629,0.615-2.511,1.496-3.535,4.212
					c-2.921,7.942-8.966,27.237-11.416,35.527c-0.615,0-2.849,0-3.464,0.072c-1.558-5.636-8.147-24.583-10.667-31.244
					c-0.072,0-0.205,0.072-0.266,0.133c-3.054,8.495-8.628,24.112-10.801,31.039c-0.615-0.072-2.787-0.072-3.464,0.072
					c-2.039-8.352-7.542-28.733-9.714-35.384c-1.014-2.992-1.701-3.935-3.464-4.417c-1.158-0.338-1.906-0.471-3.597-0.748
					C403.115,455.178,403.177,453.692,403.525,453.487z"/>
				<path style="fill:#002856;" d="M471.445,453.549c1.629,0,5.031,0.205,8.69,0.205c4.55,0,6.589-0.205,8.495-0.205
					c0.205,0.338,0.205,1.701-0.072,1.906c-1.219,0.205-2.511,0.41-3.259,0.615c-1.363,0.41-1.834,0.953-1.906,3.125
					c-0.133,2.511-0.072,5.974-0.072,12.635c0,0.277,0.133,0.615,0.338,0.676c0.471,0.072,1.701,0.133,11.549,0.133
					c7.47-0.072,10.053-0.072,10.667-0.133c0.205,0,0.41-0.277,0.41-0.41c0-3.535,0-11.211-0.133-13.649
					c-0.072-1.086-0.41-1.906-1.363-2.244c-1.014-0.338-2.244-0.543-4.007-0.748c-0.338-0.277-0.277-1.629,0.072-1.967
					c1.558,0,4.888,0.277,8.495,0.277c3.392,0,7.337-0.205,8.423-0.205c0.205,0.277,0.277,1.629,0,1.906
					c-1.496,0.205-2.644,0.41-3.535,0.676c-1.496,0.471-1.763,1.219-1.906,3.669c-0.133,2.377-0.133,6.384-0.133,14.469
					c0,5.913,0,13.383,0.133,15.689c0.205,1.906,0.615,2.654,1.906,3.054c0.953,0.338,2.244,0.543,4.345,0.748
					c0.205,0.277,0.133,1.763-0.277,1.967c-2.039,0-5.636-0.205-9.1-0.205c-3.464,0-6.855,0.133-8.628,0.205
					c-0.277-0.277-0.277-1.629,0-1.967c1.763-0.205,2.787-0.338,3.873-0.676c1.219-0.338,1.629-1.014,1.763-3.125
					c0.072-1.967,0.072-9.376,0.072-13.649c0-0.205-0.205-0.471-0.41-0.471c-1.291-0.072-7.06-0.072-10.801-0.072
					c-5.298,0-10.872,0-11.549,0.072c-0.133,0-0.205,0.338-0.205,0.41c0,3.74,0,11.549,0.072,12.973
					c0.133,2.306,0.41,3.259,2.101,3.74c1.014,0.277,2.039,0.543,4.078,0.82c0.277,0.338,0,1.834-0.266,1.967
					c-1.291,0-4.478-0.205-8.833-0.205c-4.007,0-7.675,0.205-9.038,0.205c-0.266-0.277-0.266-1.701-0.072-1.967
					c1.629-0.205,2.716-0.41,3.669-0.615c1.967-0.615,2.172-1.834,2.377-4.96c0-2.306,0.072-8.085,0.072-13.988
					c0-6.589-0.072-13.793-0.133-15.012c-0.133-1.906-0.543-2.654-1.906-2.992c-1.014-0.338-2.244-0.471-4.078-0.748
					C471.106,455.178,471.178,453.826,471.445,453.549z"/>
				<path style="fill:#002856;" d="M526.893,453.487c1.701,0,5.226,0.277,9.038,0.277h13.383c2.582,0,6.118-0.072,7.542-0.277
					c0.072,0.072,0.277,0.277,0.277,0.338c-0.543,2.039-1.014,6.589-1.219,9.305c-0.277,0.338-1.906,0.338-2.111,0.133
					c-0.205-1.967-0.471-3.125-0.748-4.14c-0.543-1.629-1.158-2.377-3.392-2.582c-1.291-0.072-9.51-0.072-10.391,0
					c-0.471,0.133-0.82,0.953-0.82,1.291c-0.072,3.802-0.072,11.344-0.072,14.397c0,0.205,0.133,0.471,0.338,0.471
					c2.716,0.072,7.942,0.072,10.391-0.133c1.496-0.133,1.967-0.953,2.306-2.039c0.277-0.748,0.543-1.701,0.748-2.716
					c0.41-0.205,1.967-0.133,2.244,0.205c-0.205,1.363-0.471,4.007-0.471,6.384c0,2.511,0.072,4.488,0.133,6.179
					c-0.338,0.338-1.968,0.41-2.306,0.072c-0.205-1.424-0.277-1.967-0.543-2.787c-0.277-0.953-0.748-1.834-2.306-1.967
					c-2.039-0.205-7.675-0.205-10.186-0.133c-0.133,0-0.338,0.338-0.338,0.543c0,3.125,0,10.319,0.133,13.588
					c0,1.363,0.748,2.306,1.558,2.582c1.363,0.338,7.265,0.41,10.053,0.41c2.921-0.072,3.802-0.676,5.021-2.244
					c1.086-1.219,2.511-3.935,3.392-5.974c0.338-0.072,1.701,0.41,1.967,0.748c-0.338,2.101-1.834,7.265-2.849,9.305
					c-0.41,0.748-0.82,1.086-4.212,1.086c-5.708,0-10.596-0.277-17.656-0.277c-4.55,0-7.952,0.205-10.729,0.205
					c-0.277-0.205-0.338-1.629-0.072-1.967c2.111-0.205,3.935-0.338,5.165-0.676c1.629-0.41,2.101-1.291,2.306-3.669
					c0.072-1.291,0.072-8.761,0.072-16.437c0-6.179,0-12.225-0.072-13.444c-0.133-2.449-0.41-3.054-2.039-3.464
					c-0.881-0.277-2.039-0.471-3.597-0.676C526.483,455.117,526.626,453.826,526.893,453.487z"/>
				<path style="fill:#002856;" d="M573.026,487.447c3.464-8.218,9.848-25.536,11.344-29.881c0.543-1.424,1.014-2.921,1.158-3.873
					c0.277,0,1.086,0.072,2.244,0.072c1.363,0,2.039-0.072,2.244-0.072c0.277,1.014,0.615,2.244,1.086,3.535
					c1.363,3.873,8.895,25.403,11.272,31.039c1.967,4.55,2.449,4.888,7.337,5.503c0.277,0.205,0.072,1.701-0.133,1.967
					c-1.763-0.072-5.226-0.205-8.29-0.205c-3.33,0-7.47,0.133-8.895,0.205c-0.205-0.277-0.338-1.701-0.072-1.967
					c1.496-0.205,2.716-0.41,3.74-0.748c0.881-0.41,0.953-1.086,0.748-1.701c-0.82-2.921-2.849-8.628-4.078-11.682
					c-0.072-0.205-0.471-0.471-0.615-0.471c-0.953-0.072-3.33,0-6.384,0c-4.345,0-4.826-0.072-5.636,0
					c-0.266,0-0.615,0.41-0.676,0.615c-1.363,3.669-3.535,9.376-3.669,11.006c-0.072,1.158,0.072,1.906,2.172,2.449
					c0.82,0.205,1.968,0.41,3.259,0.543c0.205,0.277,0.072,1.701-0.133,1.967c-1.424,0-4.888-0.205-8.69-0.205
					c-3.873,0-5.974,0.205-7.265,0.205c-0.277-0.277-0.277-1.701,0-1.967C569.973,493.155,570.792,492.673,573.026,487.447z
					 M585.999,460.824c-1.158,3.392-3.935,11.067-5.093,14.674c0,0.277,0.072,0.41,0.277,0.471c0.676,0.072,2.849,0.072,5.431,0.072
					c1.629,0,3.873,0,4.55-0.072c0.133,0,0.338-0.277,0.205-0.543c-1.363-4.212-3.935-11.754-5.021-14.674
					C586.276,460.753,586.071,460.681,585.999,460.824z"/>
				<path style="fill:#002856;" d="M638.578,495.727c-1.967,0-5.974-0.205-10.124-0.205c-5.021,0-8.485,0.205-10.258,0.205
					c-0.277-0.338-0.205-1.701,0-1.967c2.111-0.205,3.802-0.41,4.826-0.676c2.172-0.41,2.511-1.763,2.582-4.888
					c0.205-5.298,0.277-19.829,0.277-31.111c0-0.277-0.277-0.543-0.471-0.543c-1.158-0.072-6.179-0.072-8.761,0
					c-1.158,0.072-2.039,0.543-2.849,1.906c-0.82,1.291-1.701,3.74-2.644,6.312c-0.277,0.205-1.968-0.205-2.111-0.543
					c0.543-2.849,1.219-8.29,1.363-11.211c0-0.133,0.615-0.338,0.748-0.277c1.219,0.615,2.992,1.014,5.503,1.014h25.137
					c3.125,0,4.622-0.133,6.589-1.014c0.205,0,0.615,0.205,0.676,0.338c-0.676,2.377-1.219,7.808-1.558,11.477
					c-0.205,0.338-1.967,0.338-2.172,0.072c-0.205-2.377-0.543-4.755-1.086-6.046c-0.543-1.363-1.363-1.906-2.644-1.967
					c-3.197-0.072-7.952-0.072-9.51,0c-0.205,0.072-0.338,0.338-0.338,0.543c0,9.981,0,28.795,0.205,32.259
					c0.205,2.377,0.748,3.197,2.306,3.597c1.086,0.338,2.244,0.471,4.622,0.748C639.05,494.098,638.916,495.594,638.578,495.727z"/>
				<path style="fill:#002856;" d="M660.59,490.572c-4.078-4.488-5.841-10.186-5.841-16.303c0-5.021,1.496-9.376,4.212-13.106
					c3.74-5.165,11.139-8.628,18.138-8.628c13.854,0,20.853,10.124,20.853,21.191c0,5.974-1.363,10.258-4.14,14.131
					c-4.212,5.841-11.067,8.895-17.861,8.895C669.423,496.752,664.125,494.374,660.59,490.572z M685.788,491.382
					c4.212-3.392,5.708-9.038,5.708-15.279c0-7.337-2.449-14.397-7.808-18.138c-2.449-1.701-5.37-2.716-8.895-2.716
					c-2.377,0-4.417,0.543-6.118,1.496c-4.96,2.921-7.265,9.038-7.265,15.965c0,7.132,2.654,14.879,8.628,18.742
					c2.377,1.496,5.031,2.306,8.495,2.306C681.371,493.759,684.025,492.878,685.788,491.382z"/>
				<path style="fill:#002856;" d="M702.573,453.549c1.701,0,5.093,0.205,8.495,0.205c1.363,0,2.511,0,3.054-0.072
					c0.266,0.676,0.676,1.424,2.449,3.669c6.927,8.69,20.853,25.67,24.112,29.482c0.133,0.072,0.205,0,0.277-0.072
					c0-9.305,0.072-22.011-0.277-26.899c-0.133-1.967-0.543-3.054-2.582-3.597c-1.219-0.338-2.716-0.615-4.55-0.82
					c-0.277-0.277-0.205-1.701,0-1.906c1.763,0,4.888,0.205,9.038,0.205c2.306,0,6.312-0.205,7.204-0.205
					c0.277,0.205,0.277,1.629,0,1.906c-1.219,0.205-2.101,0.41-2.992,0.676c-1.763,0.615-2.172,1.834-2.306,3.669
					c-0.41,5.226-0.338,13.926-0.543,26.766c0,3.125,0.072,7.06,0.133,9.305c-0.748-0.072-3.873-0.072-4.683,0
					c-3.597-5.165-22.278-28.529-26.356-33.621c-0.072-0.072-0.277,0-0.277,0.072c-0.133,6.999-0.133,22.893,0.072,26.694
					c0.133,2.716,1.014,3.669,2.787,4.078c1.014,0.338,2.377,0.471,4.078,0.676c0.277,0.277,0.072,1.701-0.133,1.967
					c-1.629,0-4.683-0.205-8.495-0.205c-4.14,0-6.722,0.205-8.147,0.205c-0.205-0.205-0.205-1.763,0-1.967
					c1.496-0.133,2.582-0.338,3.597-0.615c1.558-0.471,2.449-1.363,2.582-4.007c0.277-3.535,0.471-14.602,0.615-28.867
					c0-1.014-0.338-2.511-1.834-3.33c-1.291-0.881-2.787-1.219-5.431-1.496C702.235,455.25,702.296,453.754,702.573,453.549z"/>
			</g>
			<g>
				<path style="fill:#002856;" d="M435.651,514.971c-1.414-0.687-3.259-0.943-5.308-0.943c-6.21,0-9.755,4.581-9.755,11.815
					c0,6.845,3.812,12.625,11.426,12.625c1.845,0,3.638-0.471,4.714-1.455c1.066-0.861,2.101-2.316,3.207-4.191
					c0.215,0,0.943,0.389,1.025,0.687c-0.43,1.845-2.265,5.185-3.248,5.779c-1.24,0.43-3.935,1.066-6.548,1.066
					c-9.551,0-14.859-5.226-14.859-14.131c0-4.622,2.101-9.243,6.804-11.774c2.265-1.24,5.052-1.967,8.69-1.967
					c3.638,0,6.507,0.728,8.434,0.861c-0.256,1.496-0.646,4.662-0.687,6.589c-0.174,0.174-1.281,0.297-1.322,0.082
					C437.792,516.601,437.239,515.74,435.651,514.971z"/>
				<path style="fill:#002856;" d="M452.087,536.46c-2.572-2.828-3.679-6.425-3.679-10.278c0-3.166,0.943-5.913,2.654-8.259
					c2.357-3.248,7.019-5.441,11.426-5.441c8.731,0,13.147,6.374,13.147,13.352c0,3.771-0.861,6.466-2.613,8.905
					c-2.654,3.679-6.978,5.605-11.262,5.605C457.652,540.354,454.311,538.858,452.087,536.46z M467.971,536.972
					c2.654-2.142,3.597-5.698,3.597-9.633c0-4.622-1.537-9.079-4.919-11.426c-1.537-1.066-3.382-1.711-5.605-1.711
					c-1.496,0-2.787,0.338-3.853,0.943c-3.125,1.845-4.581,5.698-4.581,10.063c0,4.499,1.67,9.376,5.441,11.815
					c1.496,0.943,3.166,1.455,5.349,1.455C465.183,538.468,466.854,537.915,467.971,536.972z"/>
				<path style="fill:#002856;" d="M482.419,513.127c1.24,0,2.654,0.133,5.482,0.133c2.869,0,4.447-0.133,5.308-0.133
					c0.215,0.174,0.215,1.025,0,1.199c-1.066,0.133-1.629,0.256-2.183,0.389c-1.025,0.256-1.117,0.81-1.158,1.711
					c-0.082,1.537-0.082,5.226-0.133,9.243c0,5.308,0,8.864,0.133,10.698c0.041,0.687,0.553,1.117,0.81,1.199
					c1.117,0.389,5.267,0.389,7.153,0.338c0.902-0.041,1.67-0.338,2.531-1.588c0.769-1.025,1.793-2.91,2.521-4.714
					c0.338-0.082,1.117,0.215,1.281,0.471c-0.297,1.67-1.496,5.861-2.224,7.153c-0.174,0.338-0.594,0.553-1.752,0.553
					c-2.736,0-10.104-0.215-12.287-0.215c-2.008,0-5.267,0.133-6.118,0.133c-0.174-0.133-0.215-1.117,0-1.24
					c1.281-0.133,2.008-0.215,2.828-0.389c0.943-0.256,1.24-0.728,1.322-1.752c0.082-1.158,0.174-5.349,0.174-10.913
					c0-4.54,0-7.101-0.082-8.218c-0.041-1.752-0.215-2.224-1.373-2.48c-0.553-0.133-1.588-0.297-2.357-0.389
					C482.122,514.152,482.204,513.26,482.419,513.127z"/>
				<path style="fill:#002856;" d="M511.399,513.127c1.24,0,2.654,0.133,5.482,0.133c2.869,0,4.447-0.133,5.308-0.133
					c0.215,0.174,0.215,1.025,0,1.199c-1.066,0.133-1.629,0.256-2.183,0.389c-1.025,0.256-1.117,0.81-1.158,1.711
					c-0.082,1.537-0.082,5.226-0.133,9.243c0,5.308,0,8.864,0.133,10.698c0.041,0.687,0.553,1.117,0.81,1.199
					c1.117,0.389,5.267,0.389,7.153,0.338c0.902-0.041,1.67-0.338,2.531-1.588c0.769-1.025,1.793-2.91,2.521-4.714
					c0.338-0.082,1.117,0.215,1.281,0.471c-0.297,1.67-1.496,5.861-2.224,7.153c-0.174,0.338-0.594,0.553-1.752,0.553
					c-2.736,0-10.104-0.215-12.286-0.215c-2.008,0-5.267,0.133-6.118,0.133c-0.174-0.133-0.215-1.117,0-1.24
					c1.281-0.133,2.008-0.215,2.828-0.389c0.943-0.256,1.24-0.728,1.322-1.752c0.082-1.158,0.174-5.349,0.174-10.913
					c0-4.54,0-7.101-0.082-8.218c-0.041-1.752-0.215-2.224-1.373-2.48c-0.553-0.133-1.588-0.297-2.357-0.389
					C511.091,514.152,511.184,513.26,511.399,513.127z"/>
				<path style="fill:#002856;" d="M541.464,513.086c1.066,0,3.3,0.174,5.698,0.174h8.434c1.629,0,3.853-0.041,4.755-0.174
					c0.041,0.041,0.174,0.174,0.174,0.215c-0.338,1.281-0.646,4.15-0.769,5.861c-0.174,0.215-1.199,0.215-1.332,0.082
					c-0.133-1.24-0.297-1.967-0.471-2.613c-0.338-1.025-0.728-1.496-2.142-1.629c-0.81-0.041-5.995-0.041-6.548,0
					c-0.297,0.082-0.512,0.605-0.512,0.81c-0.041,2.398-0.041,7.153-0.041,9.079c0,0.133,0.082,0.297,0.215,0.297
					c1.711,0.041,5.011,0.041,6.548-0.082c0.943-0.082,1.24-0.605,1.455-1.281c0.174-0.471,0.338-1.066,0.471-1.711
					c0.256-0.133,1.24-0.082,1.414,0.133c-0.133,0.861-0.297,2.521-0.297,4.027c0,1.588,0.041,2.828,0.082,3.894
					c-0.215,0.215-1.24,0.256-1.455,0.041c-0.133-0.902-0.174-1.24-0.338-1.752c-0.174-0.594-0.471-1.158-1.455-1.24
					c-1.281-0.133-4.837-0.133-6.425-0.082c-0.082,0-0.215,0.215-0.215,0.338c0,1.967,0,6.507,0.082,8.567
					c0,0.861,0.471,1.455,0.984,1.629c0.861,0.215,4.581,0.256,6.333,0.256c1.844-0.041,2.398-0.43,3.166-1.414
					c0.687-0.768,1.588-2.48,2.142-3.771c0.215-0.041,1.066,0.256,1.24,0.471c-0.215,1.322-1.158,4.581-1.793,5.862
					c-0.256,0.471-0.512,0.687-2.654,0.687c-3.597,0-6.681-0.174-11.129-0.174c-2.869,0-5.011,0.133-6.763,0.133
					c-0.174-0.133-0.215-1.025-0.041-1.24c1.322-0.133,2.48-0.215,3.248-0.43c1.025-0.256,1.322-0.81,1.455-2.316
					c0.041-0.81,0.041-5.523,0.041-10.36c0-3.894,0-7.706-0.041-8.475c-0.082-1.537-0.256-1.927-1.281-2.183
					c-0.553-0.174-1.281-0.297-2.265-0.43C541.208,514.111,541.29,513.301,541.464,513.086z"/>
				<path style="fill:#002856;" d="M595.15,538.725c-1.414,0.43-5.605,1.629-9.335,1.629c-10.022,0-15.279-5.052-15.279-14.08
					c0-5.646,2.869-10.063,7.532-12.153c2.398-1.117,5.011-1.629,8.352-1.629c3.464,0,5.913,0.687,8.474,0.943
					c-0.338,1.588-0.728,4.878-0.769,6.804c-0.133,0.215-1.199,0.297-1.414,0.133c-0.338-3.207-0.861-4.406-2.101-5.134
					c-1.322-0.769-3.043-1.199-5.82-1.199c-6.681,0-9.889,4.755-9.889,11.774c0,7.368,3.935,13.055,11.692,13.055
					c1.199,0,2.265-0.174,2.869-0.553c0.594-0.297,0.861-1.066,0.943-1.793c0.133-1.332,0.133-2.91,0.082-4.365
					c-0.082-1.414-0.338-1.927-1.588-2.265c-0.769-0.174-1.537-0.256-2.869-0.43c-0.215-0.133-0.133-1.117,0.041-1.24
					c1.332,0,3.382,0.133,5.995,0.133c2.521,0,3.812-0.082,4.663-0.133c0.133,0.133,0.133,1.158-0.041,1.281
					c-0.512,0.082-1.025,0.174-1.414,0.297c-0.81,0.256-1.025,0.81-1.066,2.06c-0.041,1.281-0.082,3.935,0,4.755
					c0.041,0.646,0.133,0.861,1.066,1.24C595.324,537.956,595.232,538.602,595.15,538.725z"/>
				<path style="fill:#002856;" d="M605.029,513.086c1.066,0,3.3,0.174,5.698,0.174h8.434c1.629,0,3.853-0.041,4.755-0.174
					c0.041,0.041,0.174,0.174,0.174,0.215c-0.338,1.281-0.646,4.15-0.769,5.861c-0.174,0.215-1.199,0.215-1.332,0.082
					c-0.133-1.24-0.297-1.967-0.471-2.613c-0.338-1.025-0.728-1.496-2.142-1.629c-0.81-0.041-5.995-0.041-6.548,0
					c-0.297,0.082-0.512,0.605-0.512,0.81c-0.041,2.398-0.041,7.153-0.041,9.079c0,0.133,0.082,0.297,0.215,0.297
					c1.711,0.041,5.011,0.041,6.548-0.082c0.943-0.082,1.24-0.605,1.455-1.281c0.174-0.471,0.338-1.066,0.471-1.711
					c0.256-0.133,1.24-0.082,1.414,0.133c-0.133,0.861-0.297,2.521-0.297,4.027c0,1.588,0.041,2.828,0.082,3.894
					c-0.215,0.215-1.24,0.256-1.455,0.041c-0.133-0.902-0.174-1.24-0.338-1.752c-0.174-0.594-0.471-1.158-1.455-1.24
					c-1.281-0.133-4.837-0.133-6.425-0.082c-0.082,0-0.215,0.215-0.215,0.338c0,1.967,0,6.507,0.082,8.567
					c0,0.861,0.471,1.455,0.984,1.629c0.861,0.215,4.581,0.256,6.333,0.256c1.845-0.041,2.398-0.43,3.166-1.414
					c0.687-0.768,1.588-2.48,2.142-3.771c0.215-0.041,1.066,0.256,1.24,0.471c-0.215,1.322-1.158,4.581-1.793,5.862
					c-0.256,0.471-0.512,0.687-2.654,0.687c-3.597,0-6.681-0.174-11.129-0.174c-2.869,0-5.011,0.133-6.763,0.133
					c-0.174-0.133-0.215-1.025-0.041-1.24c1.322-0.133,2.48-0.215,3.248-0.43c1.025-0.256,1.322-0.81,1.455-2.316
					c0.041-0.81,0.041-5.523,0.041-10.36c0-3.894,0-7.706-0.041-8.475c-0.082-1.537-0.256-1.927-1.281-2.183
					c-0.553-0.174-1.281-0.297-2.265-0.43C604.772,514.111,604.854,513.301,605.029,513.086z"/>
			</g>
			<g>
				<path style="fill:#002856;" d="M418.056,567.13c0.574-0.133,0.697-0.369,0.83-1.025c0.195-0.881,1.291-7.716,1.383-8.505
					c0.072-0.615,0-0.871-0.4-0.984c-0.246-0.092-0.697-0.133-1.137-0.195c-0.061-0.082,0.02-0.482,0.092-0.543
					c0.328,0,1.363,0.062,2.429,0.062h4.201c0.615,0,1.424-0.041,1.824-0.092c0.041,0,0.082,0.133,0.082,0.215
					c-0.236,0.574-0.502,1.66-0.697,2.675c-0.061,0.092-0.482,0.092-0.574,0.021c0-0.523-0.021-1.035-0.072-1.404
					c-0.061-0.441-0.328-0.635-0.728-0.656c-0.676-0.041-2.613-0.061-3.043-0.041c-0.133,0-0.287,0.215-0.307,0.348
					c-0.174,0.728-0.615,3.484-0.748,4.488c-0.021,0.061,0.041,0.113,0.092,0.113c0.523,0,2.408,0,3.002-0.041
					c0.543-0.041,0.728-0.236,0.881-0.594c0.092-0.215,0.195-0.441,0.307-0.789c0.092-0.082,0.543-0.02,0.615,0.062
					c-0.113,0.4-0.266,1.117-0.4,1.814c-0.092,0.574-0.195,1.312-0.246,1.885c-0.061,0.113-0.502,0.113-0.574,0.041
					c-0.021-0.4-0.041-0.656-0.061-0.881c-0.072-0.42-0.266-0.594-0.635-0.656c-0.635-0.061-2.449-0.061-3.023-0.061
					c-0.061,0-0.113,0.082-0.113,0.133c-0.195,1.137-0.461,2.787-0.543,3.576c-0.082,0.676-0.02,0.922,0.543,1.035
					c0.246,0.041,0.748,0.092,1.209,0.154c0.061,0.092,0,0.482-0.092,0.564c-0.564,0-1.732-0.062-2.736-0.062
					c-0.963,0-1.845,0.062-2.459,0.062c-0.061-0.092-0.021-0.482,0.082-0.564C417.441,567.222,417.831,567.181,418.056,567.13z"/>
				<path style="fill:#002856;" d="M433.406,562.447c0,1.988-0.81,3.945-2.603,4.97c-0.769,0.461-1.64,0.676-2.101,0.676
					c-1.271,0-1.865-1.25-1.865-2.675c0-1.67,0.574-3.505,1.967-4.519c0.83-0.615,1.998-1.025,2.675-1.025
					C432.925,559.865,433.406,561.269,433.406,562.447z M429.687,567.161c1.23,0,2.213-2.06,2.213-4.201
					c0-1.137-0.266-2.234-1.383-2.254c-1.486,0-2.213,2.408-2.213,4.099C428.303,566.372,428.723,567.161,429.687,567.161z"/>
				<path style="fill:#002856;" d="M438.428,560.961c0.564-0.697,1.096-1.096,1.517-1.096c0.307,0,0.656,0.113,0.83,0.441
					c0,0.041,0,0.215,0,0.266c-0.061,0.287-0.553,1.076-0.789,1.271c-0.082,0.072-0.174,0.072-0.236,0.041
					c-0.266-0.328-0.543-0.482-0.748-0.482c-0.307,0-0.902,0.676-1.711,2.367c-0.266,0.574-0.543,1.363-0.748,2.254
					c-0.113,0.523-0.225,1.055-0.215,1.445c-0.174,0.195-1.117,0.594-1.332,0.615c-0.082,0-0.133-0.113-0.133-0.174
					c0.092-0.461,0.963-4.232,1.117-5.779c0.061-0.461,0.021-0.656-0.113-0.656c-0.174,0-0.574,0.266-1.096,0.707
					c-0.021,0-0.072-0.021-0.072-0.062c-0.02-0.133,0.061-0.461,0.072-0.523c0.81-0.922,1.988-1.752,2.408-1.752
					c0.266,0,0.369,0.4,0.195,1.578c-0.082,0.502-0.174,0.922-0.246,1.363c0,0.021,0.061,0.041,0.072,0
					C437.577,562.16,437.926,561.617,438.428,560.961z"/>
				<path style="fill:#002856;" d="M454.137,556.637c-0.461-0.246-1.25-0.369-1.988-0.369c-2.941,0-4.847,2.695-4.847,6.118
					c-0.021,3.084,1.599,4.816,4.294,4.816c0.482,0,1.025-0.082,1.445-0.287c0.656-0.266,1.363-0.851,2.101-1.814
					c0.113,0,0.389,0.287,0.348,0.42c-0.461,0.881-1.363,1.824-1.988,2.121c-0.656,0.328-1.66,0.482-2.695,0.482
					c-3.443,0-5.298-2.101-5.277-5.39c0-2.5,1.137-5.001,3.771-6.374c1.025-0.543,2.152-0.768,3.505-0.768
					c0.676,0,1.332,0.082,1.967,0.174c0.502,0.092,1.025,0.195,1.332,0.236c-0.174,0.594-0.482,1.998-0.553,2.808
					c-0.092,0.133-0.523,0.133-0.615,0.041C454.926,557.313,454.752,556.944,454.137,556.637z"/>
				<path style="fill:#002856;" d="M459.24,563.759c-0.461,0.728-0.728,1.353-0.943,2.295c-0.113,0.502-0.215,1.035-0.092,1.353
					c-0.236,0.215-1.158,0.728-1.363,0.728c-0.041,0-0.154-0.133-0.154-0.236c0-0.287,0.082-0.656,0.154-1.096
					c0.543-3.064,1.773-9.223,1.926-10.401c0.021-0.287-0.072-0.42-0.215-0.42c-0.246,0-0.502,0.082-1.137,0.369
					c-0.021-0.072,0.041-0.502,0.092-0.553c0.728-0.523,2.142-1.178,2.634-1.178c0.174,0,0.266,0.246,0.133,1.025
					c-0.389,2.019-1.209,6.118-1.486,7.604c0,0.021,0.061,0.041,0.072,0c1.424-1.947,3.259-3.371,4.355-3.371
					c0.676,0,0.676,0.851,0.389,2.306c-0.266,1.404-0.594,2.869-0.748,3.873c-0.021,0.348,0.021,0.502,0.195,0.502
					c0.215,0,0.676-0.287,1.178-0.83c0.021,0.021,0.061,0.062,0.061,0.113c0.02,0.154-0.061,0.502-0.072,0.564
					c-0.871,1.117-1.998,1.691-2.429,1.691c-0.348,0-0.502-0.543-0.369-1.332c0.215-1.353,0.574-2.941,0.902-4.509
					c0.154-0.81,0.092-1.117-0.246-1.117C461.474,561.135,460.244,562.16,459.24,563.759z"/>
				<path style="fill:#002856;" d="M469.231,560.961c0.564-0.697,1.096-1.096,1.517-1.096c0.307,0,0.656,0.113,0.83,0.441
					c0,0.041,0,0.215,0,0.266c-0.061,0.287-0.553,1.076-0.789,1.271c-0.082,0.072-0.174,0.072-0.236,0.041
					c-0.266-0.328-0.543-0.482-0.748-0.482c-0.307,0-0.902,0.676-1.711,2.367c-0.266,0.574-0.543,1.363-0.748,2.254
					c-0.113,0.523-0.225,1.055-0.215,1.445c-0.174,0.195-1.117,0.594-1.332,0.615c-0.082,0-0.133-0.113-0.133-0.174
					c0.092-0.461,0.963-4.232,1.117-5.779c0.061-0.461,0.021-0.656-0.113-0.656c-0.174,0-0.574,0.266-1.096,0.707
					c-0.021,0-0.072-0.021-0.072-0.062c-0.02-0.133,0.061-0.461,0.072-0.523c0.81-0.922,1.988-1.752,2.408-1.752
					c0.266,0,0.369,0.4,0.195,1.578c-0.082,0.502-0.174,0.922-0.246,1.363c0,0.021,0.061,0.041,0.082,0
					C468.391,562.16,468.729,561.617,469.231,560.961z"/>
				<path style="fill:#002856;" d="M475.205,565.778c0.021,0.092-0.021,0.461-0.061,0.564c-0.902,1.209-2.019,1.752-2.429,1.752
					c-0.4,0-0.574-0.523-0.307-1.814c0.287-1.486,0.676-3.269,0.902-4.427c0.061-0.266,0.021-0.42-0.082-0.42
					c-0.215,0-0.574,0.215-1.035,0.574c0,0-0.061-0.021-0.061-0.062c-0.041-0.113,0.041-0.441,0.072-0.502
					c0.769-0.789,1.947-1.578,2.429-1.578c0.246,0,0.307,0.461,0.113,1.353c-0.195,1.035-0.871,3.945-0.984,4.847
					c-0.041,0.348,0.02,0.502,0.195,0.502c0.246,0,0.615-0.246,1.178-0.851C475.144,565.716,475.205,565.737,475.205,565.778z
					 M475.431,556.688c0.082,0.113,0.113,0.348,0.092,0.523c-0.041,0.369-0.246,0.676-0.482,0.83
					c-0.133,0.072-0.769,0.133-0.871,0.062c-0.195-0.113-0.287-0.307-0.307-0.656c0.02-0.154,0.092-0.441,0.174-0.543
					c0.195-0.195,0.594-0.348,0.922-0.348C475.236,556.555,475.39,556.637,475.431,556.688z"/>
				<path style="fill:#002856;" d="M481.251,560.295c0.021,0.041,0.041,0.195,0.021,0.287c-0.082,0.246-0.4,0.769-0.615,0.963
					c-0.061,0.041-0.174,0.021-0.215,0c-0.266-0.482-0.748-0.769-1.291-0.769c-0.543,0-1.004,0.42-1.004,1.035
					c0,0.502,0.215,0.81,1.363,1.67c1.025,0.789,1.383,1.23,1.383,1.865c0,0.482-0.195,1.178-1.076,1.906
					c-0.83,0.656-1.619,0.83-2.213,0.83c-0.615,0-1.137-0.215-1.404-0.482c-0.154-0.154-0.246-0.389-0.246-0.553
					c0-0.236,0.246-0.984,0.42-1.25c0.041-0.061,0.287-0.082,0.287-0.041c0.215,0.943,0.984,1.486,1.793,1.486
					c0.717,0,1.189-0.482,1.189-1.035c0-0.482-0.154-0.83-1.312-1.711c-1.035-0.81-1.291-1.291-1.291-1.906
					c0-0.502,0.215-1.189,0.881-1.793c0.769-0.697,1.64-0.922,2.142-0.922C480.688,559.865,481.128,560.08,481.251,560.295z"/>
				<path style="fill:#002856;" d="M484.131,565.665c-0.092,0.769,0.082,0.984,0.348,0.984c0.543,0,1.404-0.851,1.732-1.291
					c0.041-0.021,0.113,0.041,0.092,0.082c0.02,0.174-0.041,0.523-0.092,0.594c-0.594,0.943-2.08,2.06-2.982,2.06
					c-0.348,0-0.656-0.4-0.615-1.291c0.021-0.769,0.656-3.986,0.984-5.698c0-0.041-0.021-0.092-0.061-0.092
					c-0.564,0-1.076-0.021-1.363-0.062c-0.021-0.041-0.021-0.092-0.021-0.133c0.113-0.195,0.656-0.635,0.748-0.676
					c0.082-0.021,0.307,0.021,0.769,0c0.082,0,0.133-0.062,0.133-0.092c0.266-1.117,0.4-1.773,0.543-2.06
					c0.113-0.236,1.137-1.025,1.465-1.137c0.061-0.02,0.195,0.174,0.154,0.236c-0.174,0.236-0.328,0.656-0.42,1.096
					c-0.133,0.523-0.287,1.209-0.4,1.824c-0.02,0.041,0,0.133,0.061,0.133c0.984,0.021,2.101-0.082,2.275-0.154
					c0.021,0.092-0.061,0.348-0.113,0.42c-0.133,0.154-0.574,0.369-1.025,0.441c-0.389,0.082-0.728,0.113-1.291,0.133
					c-0.061,0-0.092,0.062-0.133,0.133C484.633,562.386,484.233,564.794,484.131,565.665z"/>
				<path style="fill:#002856;" d="M502.135,561.925c0.564,0,0.851-0.154,0.851-0.635c0-0.369-0.215-0.851-0.523-1.209
					c0.072-0.215,1.004-0.851,1.23-0.881c0.236,0.174,0.389,0.676,0.389,1.178c0,1.025-1.025,2.521-2.675,2.654
					c-0.728,2.849-2.808,5.329-5.718,5.329c-2.736,0-3.945-2.234-3.945-4.54c0-1.291,0.42-2.634,1.558-3.679
					c0.523-0.502,1.363-1.025,1.845-1.025c0.984,0,1.363,1.004,1.353,1.64c0,0.041,0.061,0.041,0.082,0.021
					c0.881-1.137,1.312-1.967,1.353-3.177c0.021-0.215-0.041-0.656-0.092-0.922c0.113-0.154,1.158-0.963,1.404-0.963
					c0.133,0.021,0.215,0.564,0.174,0.902c-0.082,1.752-1.517,3.751-3.925,6.425c-0.615,0.697-1.383,1.465-1.865,1.968
					c-0.072,0.061-0.072,0.154-0.061,0.195c0.441,1.055,1.578,1.885,3.136,1.885c1.947,0,3.351-1.363,3.464-3.771
					c0-0.113-0.021-0.225-0.082-0.307c-0.195-0.133-0.42-0.195-0.851-0.195c-0.871,0-1.517,0.676-2.019,1.844
					c-0.041,0.021-0.133,0.021-0.154,0c-0.133-0.072-0.246-0.328-0.266-0.441c0.42-1.178,1.506-2.521,2.941-2.521
					C500.67,561.699,501.52,561.925,502.135,561.925z M493.066,562.929c0,0.502,0.082,1.004,0.154,1.271
					c0.041,0.072,0.092,0.092,0.133,0.061c0.441-0.389,1.137-1.055,1.67-1.711c0.287-0.348,0.328-0.697,0.328-1.096
					c0-0.574-0.287-1.332-0.922-1.332C493.804,560.121,493.066,561.002,493.066,562.929z"/>
				<path style="fill:#002856;" d="M509.995,555.879c0.461,0,1.312,0.061,2.306,0.061c1.117,0,2.019-0.061,2.367-0.061
					c0.062,0.061,0.021,0.482-0.061,0.564c-0.369,0.041-0.697,0.072-0.943,0.154c-0.4,0.113-0.574,0.287-0.697,0.881
					c-0.133,0.635-0.328,1.752-0.615,3.638c0,0.082,0.021,0.133,0.072,0.154c0.092,0.02,0.42,0.041,3.197,0.041
					c1.927,0,2.675,0,2.869-0.021c0.041-0.021,0.113-0.072,0.113-0.154c0.236-1.291,0.502-3.115,0.574-3.812
					c0.041-0.42-0.082-0.635-0.369-0.717c-0.266-0.092-0.523-0.113-1.004-0.195c-0.062-0.082,0-0.482,0.082-0.543
					c0.389,0,1.209,0.062,2.254,0.062c1.23,0,1.947-0.062,2.306-0.062c0.061,0.082,0.02,0.482-0.062,0.543
					c-0.4,0.061-0.748,0.113-0.984,0.195c-0.461,0.154-0.553,0.441-0.697,1.096c-0.195,1.035-1.189,7.255-1.312,8.475
					c-0.061,0.543,0.062,0.81,0.42,0.922c0.287,0.072,0.574,0.113,1.096,0.174c0.041,0.092,0,0.482-0.092,0.564
					c-0.369,0-1.445-0.062-2.449-0.062c-1.096,0-1.885,0.041-2.388,0.062c-0.072-0.082-0.041-0.502,0.062-0.564
					c0.4-0.061,0.83-0.113,1.076-0.195c0.369-0.113,0.523-0.389,0.635-0.881c0.154-0.728,0.461-2.634,0.656-3.904
					c0-0.061-0.021-0.133-0.082-0.133c-0.4-0.041-1.845-0.041-2.89-0.041c-1.988,0-3.043,0-3.218,0.021
					c-0.021,0-0.092,0.092-0.092,0.113c-0.154,1.004-0.482,3.084-0.553,3.73c-0.092,0.748-0.021,1.004,0.482,1.117
					c0.246,0.072,0.523,0.092,1.055,0.174c0.041,0.082-0.021,0.523-0.113,0.564c-0.4,0-1.353-0.062-2.449-0.062
					c-1.209,0-2.101,0.062-2.541,0.062c-0.041-0.092,0-0.482,0.061-0.564c0.328-0.041,0.728-0.072,1.055-0.154
					c0.594-0.113,0.717-0.4,0.902-1.404c0.215-1.23,1.189-7.235,1.291-8.198c0.061-0.523,0-0.81-0.369-0.902
					c-0.307-0.092-0.574-0.113-1.076-0.174C509.872,556.33,509.913,555.94,509.995,555.879z"/>
				<path style="fill:#002856;" d="M525.448,565.778c0.021,0.092-0.02,0.461-0.061,0.564c-0.902,1.209-2.019,1.752-2.429,1.752
					c-0.4,0-0.574-0.523-0.307-1.814c0.287-1.486,0.676-3.269,0.902-4.427c0.061-0.266,0.02-0.42-0.082-0.42
					c-0.215,0-0.574,0.215-1.035,0.574c0,0-0.062-0.021-0.062-0.062c-0.041-0.113,0.041-0.441,0.072-0.502
					c0.769-0.789,1.947-1.578,2.429-1.578c0.246,0,0.307,0.461,0.113,1.353c-0.195,1.035-0.871,3.945-0.984,4.847
					c-0.041,0.348,0.021,0.502,0.195,0.502c0.246,0,0.615-0.246,1.178-0.851C525.397,565.716,525.448,565.737,525.448,565.778z
					 M525.684,556.688c0.082,0.113,0.113,0.348,0.092,0.523c-0.041,0.369-0.246,0.676-0.482,0.83
					c-0.133,0.072-0.769,0.133-0.871,0.062c-0.195-0.113-0.287-0.307-0.307-0.656c0.02-0.154,0.092-0.441,0.174-0.543
					c0.195-0.195,0.594-0.348,0.922-0.348C525.489,556.555,525.643,556.637,525.684,556.688z"/>
				<path style="fill:#002856;" d="M531.494,560.295c0.021,0.041,0.041,0.195,0.021,0.287c-0.082,0.246-0.4,0.769-0.615,0.963
					c-0.061,0.041-0.174,0.021-0.215,0c-0.266-0.482-0.748-0.769-1.291-0.769s-1.004,0.42-1.004,1.035
					c0,0.502,0.215,0.81,1.363,1.67c1.025,0.789,1.383,1.23,1.383,1.865c0,0.482-0.195,1.178-1.076,1.906
					c-0.83,0.656-1.619,0.83-2.213,0.83c-0.615,0-1.137-0.215-1.404-0.482c-0.154-0.154-0.246-0.389-0.246-0.553
					c0-0.236,0.246-0.984,0.42-1.25c0.041-0.061,0.287-0.082,0.287-0.041c0.215,0.943,0.984,1.486,1.793,1.486
					c0.717,0,1.199-0.482,1.199-1.035c0-0.482-0.154-0.83-1.312-1.711c-1.035-0.81-1.291-1.291-1.291-1.906
					c0-0.502,0.215-1.189,0.881-1.793c0.769-0.697,1.64-0.922,2.142-0.922C530.94,559.865,531.381,560.08,531.494,560.295z"/>
				<path style="fill:#002856;" d="M537.448,555.879c0.441,0,1.404,0.061,2.429,0.061c1.004,0,1.865-0.061,2.347-0.061
					c0.062,0.082,0.062,0.441-0.041,0.543c-0.389,0.061-0.748,0.092-1.025,0.174c-0.441,0.113-0.574,0.369-0.707,1.035
					c-0.328,1.752-1.004,5.984-1.332,8.28c-0.082,0.922,0.113,1.096,0.594,1.23c0.266,0.061,0.594,0.072,1.004,0.154
					c0.041,0.082,0,0.461-0.082,0.543c-0.656,0-1.445-0.061-2.674-0.061c-1.332,0-2.152,0.061-2.449,0.061
					c-0.041-0.092-0.041-0.461,0.061-0.543c0.441-0.082,0.851-0.113,1.096-0.174c0.502-0.133,0.728-0.441,0.871-1.158
					c0.4-2.295,1.025-6.138,1.332-8.495c0.082-0.574,0-0.769-0.461-0.881c-0.246-0.061-0.676-0.113-1.035-0.174
					C537.314,556.35,537.366,555.961,537.448,555.879z M544.026,555.879c0.4,0,1.178,0.061,2.193,0.061
					c1.189,0,1.773-0.041,2.275-0.061c0.072,0.061,0.061,0.461-0.061,0.543c-1.137,0.195-1.67,0.4-2.541,1.23
					c-1.189,1.158-3.064,2.91-4.201,3.853c-0.02,0.021-0.041,0.092-0.02,0.092c0.851,1.404,2.674,4.007,3.832,5.083
					c0.215,0.174,0.502,0.348,0.728,0.4c0.328,0.113,0.707,0.174,1.291,0.195c0.082,0.082,0.021,0.502-0.092,0.564
					c-1.004,0.113-2.654,0.02-3.043-0.174c-0.287-0.113-0.543-0.348-0.851-0.676c-0.728-0.81-2.459-3.371-3.269-4.642
					c-0.113-0.195-0.215-0.266-0.287-0.348c-0.021-0.061,0.041-0.236,0.113-0.287c0.922-0.307,3.546-2.716,4.509-3.792
					c0.543-0.594,0.615-0.789,0.615-0.943c0.021-0.133-0.041-0.266-0.246-0.348c-0.236-0.072-0.615-0.154-1.025-0.215
					C543.873,556.33,543.914,555.961,544.026,555.879z"/>
				<path style="fill:#002856;" d="M551.63,565.778c0.021,0.092-0.021,0.461-0.061,0.564c-0.902,1.209-2.019,1.752-2.429,1.752
					c-0.4,0-0.574-0.523-0.307-1.814c0.287-1.486,0.676-3.269,0.902-4.427c0.062-0.266,0.021-0.42-0.082-0.42
					c-0.215,0-0.574,0.215-1.035,0.574c0,0-0.061-0.021-0.061-0.062c-0.041-0.113,0.041-0.441,0.072-0.502
					c0.769-0.789,1.947-1.578,2.429-1.578c0.246,0,0.307,0.461,0.113,1.353c-0.195,1.035-0.871,3.945-0.984,4.847
					c-0.041,0.348,0.02,0.502,0.195,0.502c0.246,0,0.615-0.246,1.178-0.851C551.579,565.716,551.63,565.737,551.63,565.778z
					 M551.865,556.688c0.082,0.113,0.113,0.348,0.092,0.523c-0.041,0.369-0.246,0.676-0.482,0.83
					c-0.133,0.072-0.769,0.133-0.871,0.062c-0.195-0.113-0.287-0.307-0.307-0.656c0.02-0.154,0.092-0.441,0.174-0.543
					c0.195-0.195,0.594-0.348,0.922-0.348C551.671,556.555,551.825,556.637,551.865,556.688z"/>
				<path style="fill:#002856;" d="M552.9,562.14c-0.041-0.113,0.041-0.502,0.062-0.553c0.851-0.984,1.947-1.711,2.367-1.711
					c0.348,0,0.389,0.615,0.174,1.793c-0.113,0.656-0.215,1.137-0.287,1.517c0,0.02,0.041,0.041,0.062,0
					c0.984-1.383,2.121-2.449,3.115-2.982c0.389-0.215,0.697-0.328,1.035-0.328c0.656,0,0.697,0.902,0.348,2.603
					c-0.307,1.445-0.564,2.716-0.697,3.546c-0.021,0.287-0.021,0.523,0.154,0.523c0.195,0,0.553-0.174,1.158-0.851
					c0.021,0,0.061,0.021,0.082,0.092c0.021,0.082-0.041,0.523-0.092,0.594c-0.748,1.035-1.906,1.711-2.429,1.711
					c-0.4,0-0.482-0.676-0.236-1.947c0.266-1.383,0.594-2.828,0.81-3.873c0.133-0.728,0.092-1.076-0.246-1.076
					c-0.574,0-1.732,0.984-2.869,2.808c-0.266,0.42-0.553,1.178-0.697,1.793c-0.174,0.697-0.307,1.383-0.246,1.66
					c-0.215,0.236-1.096,0.615-1.291,0.635c-0.092,0.02-0.195-0.113-0.174-0.215c0.082-0.769,0.943-4.365,1.158-5.984
					c0.041-0.266,0.02-0.441-0.113-0.441c-0.195,0-0.635,0.348-1.055,0.748C552.962,562.201,552.9,562.16,552.9,562.14z"/>
				<path style="fill:#002856;" d="M569.132,560.295c-0.133,0.42-0.615,0.902-1.025,1.035c-0.174,0.092-0.42,0.174-0.635,0.215
					c0.021,0.113,0.021,0.4,0.021,0.523c0,1.424-0.676,2.634-1.64,3.289c-0.482,0.348-1.137,0.564-1.558,0.656
					c-0.113,0.041-0.266,0.082-0.42,0.154c-0.154,0.092-0.328,0.236-0.328,0.369c0,0.195,0.174,0.369,0.564,0.564
					c0.789,0.369,1.906,0.922,2.5,1.332c0.635,0.42,1.025,0.881,1.025,1.517c0,0.728-0.574,1.66-1.711,2.326
					c-0.871,0.502-1.824,0.676-2.449,0.676c-1.988,0-3.371-1.076-3.371-2.388c0-0.676,1.209-1.517,2.613-2.367
					c0.041-0.021,0.02-0.061,0-0.072c-0.441-0.307-0.656-0.635-0.656-0.922c0-0.072,0.062-0.236,0.113-0.287
					c0.215-0.236,0.851-0.635,1.076-0.769c0-0.02,0.021-0.061-0.02-0.082c-1.035-0.236-1.445-1.096-1.445-2.101
					c0.021-1.23,0.594-2.623,1.732-3.392c0.553-0.369,1.517-0.697,2.039-0.697c0.328,0,0.769,0.154,1.271,0.4
					c0.215,0.092,0.615,0.266,0.943,0.246c0.543,0,0.902-0.092,1.312-0.461C569.132,560.08,569.132,560.234,569.132,560.295z
					 M566.345,570.706c0-0.482-0.287-0.83-0.769-1.178c-0.656-0.482-1.752-1.055-2.142-1.055c-0.266,0-2.019,1.055-2.019,1.711
					c0,0.943,1.25,1.865,2.808,1.865C565.597,572.039,566.345,571.424,566.345,570.706z M566.171,562.386
					c0-1.025-0.4-1.773-1.25-1.773c-1.117,0-1.711,1.66-1.711,2.931c0,1.025,0.42,1.773,1.271,1.773
					C565.474,565.316,566.171,563.81,566.171,562.386z"/>
				<path style="fill:#002856;" d="M570.69,561.31c0.851-0.81,2.367-1.445,3.115-1.445c0.482,0,0.83,0.062,1.035,0.133
					c0.041,0.021,0.092-0.021,0.092-0.061c0.266-1.25,0.553-2.869,0.635-3.484c0.041-0.4,0-0.574-0.195-0.574
					c-0.215,0-0.676,0.082-1.25,0.328c-0.041-0.082,0.021-0.482,0.082-0.543c0.861-0.523,2.295-1.076,2.777-1.076
					c0.225,0.021,0.215,0.42,0.113,0.984c-0.574,3.064-1.926,9.469-1.947,10.719c0,0.174,0.072,0.328,0.174,0.328
					c0.287,0,0.707-0.328,1.25-0.871c0.021,0.021,0.062,0.041,0.062,0.072c0.02,0.154-0.062,0.502-0.092,0.594
					c-0.717,0.943-2.142,1.845-2.603,1.845c-0.236,0-0.348-0.389-0.287-0.81c0.02-0.523,0.154-1.23,0.348-2.306
					c-0.02-0.021-0.072-0.021-0.092,0c-1.271,1.711-2.89,2.91-3.771,2.91c-0.922,0-1.178-1.25-1.178-2.193
					C568.958,564.179,569.614,562.355,570.69,561.31z M573.815,564.353c0.195-0.307,0.389-0.676,0.482-1.096
					c0.133-0.502,0.307-1.506,0.348-1.732c0-0.174-0.02-0.307-0.113-0.389c-0.328-0.287-0.871-0.441-1.445-0.441
					c-1.773,0-2.634,2.634-2.634,4.56c0,0.943,0.246,1.424,0.728,1.424C571.715,566.679,572.75,565.972,573.815,564.353z"/>
				<path style="fill:#002856;" d="M584.554,562.447c0,1.988-0.81,3.945-2.603,4.97c-0.769,0.461-1.64,0.676-2.101,0.676
					c-1.271,0-1.865-1.25-1.865-2.675c0-1.67,0.574-3.505,1.968-4.519c0.83-0.615,1.998-1.025,2.674-1.025
					C584.073,559.865,584.554,561.269,584.554,562.447z M580.845,567.161c1.23,0,2.213-2.06,2.213-4.201
					c0-1.137-0.266-2.234-1.383-2.254c-1.486,0-2.213,2.408-2.213,4.099C579.451,566.372,579.882,567.161,580.845,567.161z"/>
				<path style="fill:#002856;" d="M585.928,562.099c-0.041-0.154,0.02-0.441,0.082-0.564c0.85-0.943,1.947-1.67,2.408-1.67
					c0.307,0,0.328,0.594,0.195,1.445c-0.113,0.656-0.236,1.209-0.369,1.906c0.02,0.021,0.061,0,0.082,0
					c1.424-1.988,3.197-3.351,4.058-3.351c0.574,0,0.768,0.615,0.594,1.885c-0.061,0.543-0.174,1.096-0.246,1.517
					c0.02,0.021,0.061,0.041,0.082,0c1.383-1.947,3.238-3.412,4.16-3.412c0.697,0,0.748,0.83,0.389,2.654
					c-0.266,1.363-0.543,2.429-0.676,3.423c-0.041,0.266-0.021,0.564,0.174,0.564s0.502-0.133,1.178-0.83
					c0.02,0,0.061,0.041,0.061,0.113c0,0.092-0.061,0.461-0.092,0.564c-0.902,1.158-1.998,1.732-2.449,1.732
					c-0.42,0-0.482-0.728-0.266-1.885c0.307-1.558,0.564-2.613,0.81-3.853c0.154-0.728,0.174-1.158-0.195-1.158
					c-0.615,0-1.968,1.23-2.931,2.869c-0.215,0.348-0.502,0.984-0.697,1.732c-0.133,0.564-0.307,1.25-0.287,1.732
					c-0.174,0.174-1.055,0.574-1.291,0.574c-0.082,0-0.174-0.092-0.133-0.328c0.092-0.676,0.769-3.484,1.035-5.318
					c0.154-0.881,0.061-1.25-0.266-1.25c-0.564,0-1.67,0.922-2.849,2.787c-0.174,0.266-0.389,0.697-0.594,1.353
					c-0.246,0.728-0.461,1.732-0.389,2.121c-0.287,0.266-1.158,0.594-1.312,0.615c-0.092,0-0.154-0.174-0.133-0.307
					c0.021-0.195,0.082-0.523,0.195-1.076c0.348-1.445,0.789-3.597,0.963-4.714c0.061-0.369,0.02-0.543-0.092-0.543
					c-0.236,0-0.615,0.307-1.096,0.728C585.958,562.181,585.928,562.14,585.928,562.099z"/>
			</g>
		</g>
		<g>
			<g>
				<g>
					<g>
						<path style="fill:#FFFFFF;" d="M325.933,447.739L325.933,447.739L325.933,447.739z"/>
						<polygon style="fill:#FFFFFF;" points="317.858,447.739 317.858,437.102 316.249,437.102 316.249,447.739 308.174,447.739 
							297.056,453.528 297.056,456.674 308.174,450.885 325.933,450.885 325.933,447.739 						"/>
					</g>
					<polygon style="fill:#CCCCCC;" points="349.778,511.2 334.95,494.384 324.754,489.066 331.774,501.66 					"/>
					<path style="fill:#CCCCCC;" d="M324.754,456.941h-8.925l2.326,1.424c-0.154,0.164-0.256,0.379-0.256,0.625v0.912h-1.681v-0.912
						c0-0.492-0.4-0.881-0.881-0.881c-0.492,0-0.881,0.4-0.881,0.881v0.912h-1.681v-0.912c0-0.492-0.4-0.881-0.881-0.881
						c-0.492,0-0.881,0.4-0.881,0.881v0.912h-1.64l-1.086,0.553v-0.912c0-0.492-0.266-0.748-0.584-0.584
						c-0.328,0.164-0.584,0.697-0.584,1.178v0.912l-1.117,0.564v-0.912c0-0.492-0.266-0.748-0.584-0.584
						c-0.328,0.164-0.584,0.697-0.584,1.178v0.912l-1.117,0.564v-0.912c0-0.492-0.266-0.748-0.584-0.584
						c-0.328,0.164-0.584,0.697-0.584,1.178v0.912l-1.117,0.564v-0.912c0-0.492-0.266-0.748-0.584-0.584
						c-0.328,0.164-0.584,0.697-0.584,1.178v0.912l-1.086,0.553v1.045l10.206-5.175h13.024l2.377,1.455v24.583l3.73,1.947v-20.484
						c0-1.219,0.779-1.793,1.752-1.291c0.963,0.502,1.752,1.906,1.752,3.125v20.454l2.972,1.547v-30.035L324.754,456.941z
						 M319.661,459.892v-0.615l1.004,0.615H319.661z"/>
					<polygon style="fill:#CCCCCC;" points="310.9,489.066 305.284,501.66 307.641,501.66 312.662,489.066 					"/>
					<polygon style="fill:#FFFFFF;" points="331.774,501.66 324.754,489.066 312.662,489.066 307.641,501.66 305.284,501.66 
						310.9,489.066 309.352,489.066 299.156,494.384 284.329,511.2 284.329,513.301 302.333,503.751 331.774,503.751 
						349.778,513.301 349.778,511.2 					"/>
					<path style="fill:#FFFFFF;" d="M322.377,460.937h-13.024l-10.206,5.175v26.172l2.972-1.547v-20.454
						c0-1.219,0.779-2.613,1.752-3.125c0.963-0.502,1.752,0.072,1.752,1.291v20.464l3.73-1.947h5.493v-20.351
						c0-1.219,0.984-2.203,2.203-2.203c1.219,0,2.203,0.984,2.203,2.203v20.361h5.493v-24.583L322.377,460.937z"/>
					<g>
						<path style="fill:#FFFFFF;" d="M313.052,527.914c-0.123-0.225-0.225-0.461-0.307-0.707
							C312.826,527.453,312.929,527.688,313.052,527.914z"/>
						<path style="fill:#FFFFFF;" d="M318.678,521.489c-0.225-0.082-0.461-0.164-0.707-0.205
							C318.216,521.325,318.442,521.396,318.678,521.489z"/>
					</g>
				</g>
			</g>
			<g>
				<path style="fill:#002856;" d="M318.38,418.565c0-0.728-0.594-1.322-1.322-1.322c-0.728,0-1.322,0.594-1.322,1.322
					c0,0.42,0.205,0.799,0.512,1.045v17.492h1.609V419.61C318.175,419.364,318.38,418.995,318.38,418.565z"/>
				<path style="fill:#D15E14;" d="M316.249,421.157c-1.629,0.758-5.585,2.849-10.206,7.183c-4.068,3.812-7.542,7.87-7.726,11.088
					c0.307-3.802,10.504-5.124,15.248-5.124c0.236-8.977,1.732-11.979,2.685-12.983V421.157z"/>
			</g>
			<g>
				<g>
					<g>
						<path style="fill:#FFFFFF;" d="M268.701,467.157c-2.336,0-4.427,0.379-5.82,0.973v17.513c1.394-0.594,3.484-0.973,5.82-0.973
							s4.427,0.379,5.82,0.973v-17.513C273.128,467.536,271.038,467.157,268.701,467.157z"/>
						<polygon style="fill:#CCCCCC;" points="261.262,469.74 261.262,486.781 273.231,486.781 273.231,487.713 277.422,487.713 
							277.422,486.781 289.391,486.781 289.391,469.74 291,469.74 291,488.39 278.293,488.39 278.293,489.322 272.36,489.322 
							272.36,488.39 259.653,488.39 259.653,469.74 						"/>
					</g>
				</g>
			</g>
			<path style="fill:#FFFFFF;" d="M309.988,434.489c-4.601,0.441-10.381,1.701-11.487,4.222c-0.031,0.072-0.051,0.143-0.072,0.215
				c-0.01,0.031-0.021,0.051-0.031,0.082c-0.041,0.133-0.061,0.277-0.082,0.42c-0.297,2.941,0.892,3.751,2.521,5.083
				c0.174-0.758,0.789-2.828,4.765-2.746c4.335,0.092,4.55-2.295,4.55-2.295C308.758,437.297,309.096,435.442,309.988,434.489z"/>
			<g>
				<polygon style="fill:#FFFFFF;" points="320.665,459.892 319.661,459.287 319.661,459.892 				"/>
				<path style="fill:#FFFFFF;" d="M300.243,463.602c0-0.492,0.266-1.014,0.584-1.178c0.328-0.164,0.584,0.102,0.584,0.584v0.912
					l1.117-0.564v-0.912c0-0.492,0.266-1.014,0.584-1.178c0.328-0.164,0.584,0.102,0.584,0.584v0.912l1.117-0.564v-0.912
					c0-0.492,0.266-1.014,0.584-1.178c0.328-0.164,0.584,0.102,0.584,0.584v0.912l1.117-0.564v-0.912
					c0-0.492,0.266-1.014,0.584-1.178c0.328-0.164,0.584,0.102,0.584,0.584v0.912l1.086-0.553h1.64v-0.912
					c0-0.492,0.4-0.881,0.881-0.881c0.492,0,0.881,0.4,0.881,0.881v0.912h1.681v-0.912c0-0.492,0.4-0.881,0.881-0.881
					c0.492,0,0.881,0.4,0.881,0.881v0.912h1.681v-0.912c0-0.246,0.102-0.461,0.256-0.625l-2.326-1.424h-6.476l-10.206,5.308v2.818
					l1.086-0.553v-0.902H300.243z"/>
			</g>
			<polygon style="fill:#CCCCCC;" points="324.754,452.975 309.352,452.975 314.117,455.896 324.754,455.896 324.754,455.896 
				334.95,461.204 334.95,458.293 			"/>
			<polygon style="fill:#FFFFFF;" points="299.156,458.293 299.156,461.204 309.352,455.896 314.117,455.896 309.352,452.975 			"/>
			<g>
				<path style="fill:#002856;" d="M295.775,547.896c-1.025,0.297-1.855,1.373-1.855,2.408v18.527l3.73-0.82v-18.773
					C297.65,548.193,296.81,547.599,295.775,547.896z"/>
				<path style="fill:#002856;" d="M296.041,524.204c-1.332,0.502-2.398,2.613-2.398,4.714c0,2.101,1.066,3.443,2.398,2.972
					c1.342-0.471,2.439-2.593,2.439-4.734C298.48,525.024,297.384,523.702,296.041,524.204z"/>
				<path style="fill:#002856;" d="M338.332,547.896c-1.035-0.297-1.875,0.297-1.875,1.353v18.773l3.73,0.82v-18.527
					C340.176,549.269,339.357,548.193,338.332,547.896z"/>
				<path style="fill:#002856;" d="M320.276,522.513c-0.82-0.82-1.967-1.332-3.218-1.332c-2.521,0-4.56,2.039-4.56,4.56
					c0,0.984,0.307,1.885,0.84,2.634c0.02,0.021,0.031,0.051,0.051,0.072c0.02,0.031,0.041,0.051,0.061,0.082
					c0.082,0.102,0.164,0.195,0.246,0.287c0.031,0.031,0.061,0.062,0.092,0.102c0.021,0.021,0.031,0.031,0.041,0.051
					c-0.01-0.01-0.02-0.031-0.031-0.041c0.83,0.851,1.978,1.373,3.259,1.373c2.521,0,4.56-2.039,4.56-4.56
					C321.608,524.481,321.096,523.343,320.276,522.513L320.276,522.513z"/>
				<path style="fill:#002856;" d="M338.065,524.204c-1.342-0.512-2.439,0.82-2.439,2.961c0,2.142,1.096,4.263,2.439,4.734
					c1.332,0.461,2.398-0.871,2.398-2.972C340.463,526.817,339.398,524.706,338.065,524.204z"/>
			</g>
			<path style="fill:#002856;" d="M320.778,569.999v-13.147c0-2.06-1.67-3.72-3.72-3.72c-2.06,0-3.72,1.67-3.72,3.72v11.293v13.69
				c2.347,0.646,3.72,0.922,3.72,0.922s1.373-0.277,3.72-0.922V569.999z"/>
			<g>
				<path style="fill:#FFFFFF;" d="M347.319,570.614V515.73l-2.644-1.404v57.795C345.546,571.639,346.427,571.137,347.319,570.614z"
					/>
				<path style="fill:#CCCCCC;" d="M337.307,575.82c0.031-0.021,0.072-0.031,0.102-0.051c0.543-0.246,1.096-0.502,1.65-0.769
					c0.041-0.021,0.092-0.041,0.133-0.061c1.783-0.851,3.617-1.793,5.482-2.818v-57.795l-14.029-7.429v71.7c0.01,0,0.01,0,0.02-0.01
					C332.747,577.798,334.971,576.886,337.307,575.82z M340.176,568.831l-3.73-0.82v-18.773c0-1.045,0.84-1.65,1.875-1.353
					c1.025,0.297,1.855,1.373,1.855,2.408V568.831z M338.065,524.204c1.332,0.502,2.398,2.613,2.398,4.714
					c0,2.101-1.066,3.443-2.398,2.972c-1.342-0.471-2.439-2.593-2.439-4.734C335.627,525.024,336.723,523.702,338.065,524.204z"/>
				<path style="fill:#CCCCCC;" d="M289.432,572.121c0,0,0.01,0,0.01,0.01c0.348,0.195,0.687,0.379,1.035,0.564v-55.366l9.315-4.939
					v-3.556l-0.748,0.389l-9.622,5.103v3.556v54.239H289.432z"/>
				<path style="fill:#FFFFFF;" d="M290.487,517.328v55.366c3.084,1.65,6.087,3.064,8.884,4.263c0,0,0,0,0.01,0
					c1.394,0.594,2.736,1.127,4.017,1.619c0.021,0.01,0.041,0.02,0.061,0.02c1.271,0.482,2.49,0.922,3.628,1.312
					c0.01,0,0.01,0,0.021,0.01v-69.876v-3.146h-3.658l-3.658,1.937v3.556L290.487,517.328z M297.65,568.011l-3.73,0.82v-18.527
					c0-1.035,0.83-2.111,1.855-2.408c1.035-0.297,1.875,0.297,1.875,1.353V568.011z M296.041,531.9
					c-1.332,0.461-2.398-0.871-2.398-2.972s1.066-4.212,2.398-4.714c1.342-0.512,2.439,0.82,2.439,2.961
					C298.48,529.307,297.384,531.429,296.041,531.9z"/>
				<path style="fill:#FFFFFF;" d="M289.421,572.121l0.01,0.01v-54.249v-3.556l-2.644,1.404v54.885l0,0
					C287.679,571.137,288.55,571.639,289.421,572.121z"/>
				<path style="fill:#FFFFFF;" d="M313.328,510.042v9.776c2.705-1.701,6.312-1.383,8.669,0.974l-1.722,1.722
					c0.82,0.82,1.332,1.967,1.332,3.218c0,2.521-2.039,4.56-4.56,4.56c-1.281,0-2.429-0.533-3.259-1.373
					c0.01,0.01,0.021,0.031,0.031,0.041l-1.076,1.076l-0.656,0.656c0.379,0.379,0.789,0.697,1.23,0.973v18.302
					c-0.666,0.359-1.281,0.82-1.814,1.353c-0.533,0.533-0.994,1.148-1.353,1.814h2.019c0.164-0.215,0.338-0.42,0.533-0.615
					c1.107-1.107,2.644-1.793,4.335-1.793c1.404,0,2.685,0.471,3.72,1.271v4.867v24.993c0.287-0.082,0.584-0.164,0.902-0.256
					c0.041-0.01,0.092-0.021,0.133-0.041c0.287-0.082,0.574-0.164,0.881-0.256c0.051-0.01,0.092-0.031,0.143-0.041
					c0.328-0.102,0.676-0.205,1.025-0.307c0.02-0.01,0.031-0.01,0.051-0.01c1.947-0.605,4.222-1.373,6.732-2.326h0.01v-71.721
					h-3.658v3.146H313.328z"/>
				<path style="fill:#CCCCCC;" d="M307.108,510.042v69.876c0.01,0,0.021,0.01,0.031,0.01c1.209,0.41,2.336,0.779,3.371,1.096
					c0.01,0,0.021,0.01,0.031,0.01c0.236,0.072,0.471,0.143,0.697,0.205c0.051,0.01,0.102,0.031,0.154,0.041
					c0.205,0.061,0.41,0.123,0.615,0.184c0.041,0.01,0.082,0.02,0.123,0.031c0.43,0.123,0.83,0.236,1.209,0.338v-24.983
					c0-2.06,1.67-3.72,3.72-3.72c2.06,0,3.72,1.67,3.72,3.72v-4.867c-1.035-0.789-2.316-1.271-3.72-1.271
					c-1.691,0-3.228,0.687-4.335,1.793c-0.195,0.195-0.369,0.4-0.533,0.615h-2.019c0.359-0.666,0.82-1.281,1.353-1.814
					c0.533-0.533,1.148-0.994,1.814-1.353v-18.302c-0.43-0.277-0.851-0.594-1.23-0.973l0.656-0.656l1.076-1.076
					c-0.021-0.021-0.031-0.031-0.041-0.051c-0.031-0.031-0.061-0.061-0.092-0.102c-0.082-0.092-0.164-0.195-0.246-0.287
					c-0.021-0.031-0.041-0.051-0.061-0.082c-0.021-0.02-0.031-0.051-0.051-0.072c-0.523-0.748-0.84-1.65-0.84-2.634
					c0-2.521,2.039-4.56,4.56-4.56c1.26,0,2.398,0.512,3.218,1.332l1.722-1.722c-2.357-2.357-5.964-2.675-8.669-0.974v-9.776h13.67
					v-3.146h-19.9V510.042L307.108,510.042z"/>
			</g>
			<polygon style="fill:#CCCCCC;" points="325.933,450.885 337.051,456.674 337.051,453.528 325.933,447.739 			"/>
			<path style="fill:#002856;" d="M309.25,437.102c0.082,0.717,0.359,1.517,0.912,2.357c0,0-0.215,2.377-4.55,2.295
				c-3.986-0.082-4.601,1.998-4.765,2.746c-1.629-1.342-2.818-2.142-2.521-5.083c0.01-0.143,0.041-0.277,0.082-0.42
				c0.01-0.031,0.021-0.051,0.031-0.082c0.02-0.072,0.051-0.143,0.072-0.215c0.266-0.605,0.81-1.137,1.537-1.609H250
				c0,0,0,40.723,0,72.479c0,31.859,19.019,50.53,36.788,61.033V515.73l16.662-8.833h27.196l16.662,8.833v54.885
				c17.779-10.503,36.788-29.184,36.788-61.033c0-31.756,0-72.479,0-72.479S309.25,437.102,309.25,437.102z M359.585,468.131
				c1.394-0.594,3.484-0.973,5.82-0.973s4.427,0.379,5.82,0.973v17.513c-1.394-0.594-3.484-0.973-5.82-0.973
				s-4.427,0.379-5.82,0.973V468.131z M346.335,468.131c0.963-0.41,2.275-0.717,3.771-0.871v-1.26h4.099v1.26
				c1.496,0.154,2.808,0.451,3.771,0.871v17.513c-1.394-0.594-3.484-0.973-5.82-0.973s-4.427,0.379-5.82,0.973V468.131z
				 M297.056,453.528l11.118-5.79h8.065v-10.637h1.609v10.637h8.065l11.118,5.79v3.146l-11.098-5.79h-17.759l-11.118,5.79V453.528z
				 M330.237,467.157c-0.963-0.502-1.752,0.072-1.752,1.291v20.464l-3.73-1.947h-5.493v-20.351c0-1.219-0.984-2.203-2.203-2.203
				c-1.219,0-2.203,0.984-2.203,2.203v20.361h-5.493l-3.74,1.937v-20.464c0-1.219-0.779-1.793-1.752-1.291
				c-0.963,0.502-1.752,1.906-1.752,3.125v20.454l-2.972,1.547v-26.172v-1.045v-2.818l10.206-5.308h6.476h8.925l10.206,5.308v30.035
				l-2.982-1.547v-20.454C331.979,469.063,331.2,467.659,330.237,467.157z M324.754,455.896L324.754,455.896h-10.637h-4.765
				l-10.206,5.308v-2.91l10.206-5.308h15.391l10.196,5.308v2.91L324.754,455.896z M276.131,468.131
				c0.963-0.41,2.275-0.717,3.771-0.871v-1.26h4.099v1.26c1.496,0.154,2.808,0.451,3.771,0.871v17.513
				c-1.394-0.594-3.484-0.973-5.82-0.973s-4.427,0.379-5.82,0.973V468.131z M262.881,468.131c1.394-0.594,3.484-0.973,5.82-0.973
				s4.427,0.379,5.82,0.973v17.513c-1.394-0.594-3.484-0.973-5.82-0.973s-4.427,0.379-5.82,0.973V468.131z M278.293,489.322h-5.923
				v-0.933h-12.717v-18.65h1.609v17.031h11.969v0.932h4.181v-0.932h11.969V469.74h1.609v18.65h-12.696V489.322z M349.778,513.301
				l-18.005-9.551h-29.441l-18.005,9.551v-2.09l14.828-16.826l10.206-5.308h15.391l0,0l10.196,5.308l14.828,16.826l0,0
				C349.778,511.211,349.778,513.301,349.778,513.301z M374.454,488.39h-12.717v0.933h-5.923v-0.933h-12.707v-18.65h1.609v17.031
				h11.969v0.932h4.181v-0.932h11.969V469.74h1.609v18.65H374.454z"/>
			<path style="fill:#FFFFFF;" d="M284.001,467.26v13.004l-2.049-1.773l-2.049,1.773V467.26c-1.496,0.154-2.808,0.451-3.771,0.871
				v17.513c1.394-0.594,3.484-0.973,5.82-0.973s4.427,0.379,5.82,0.973v-17.513C286.808,467.711,285.497,467.414,284.001,467.26z"/>
			<polygon style="fill:#D15E14;" points="284.001,480.264 281.951,478.491 279.902,480.264 279.902,465.999 284.001,465.999 			"/>
			<g>
				<g>
					<g>
						<path style="fill:#FFFFFF;" d="M365.405,467.157c2.336,0,4.427,0.379,5.82,0.973v17.513c-1.394-0.594-3.484-0.973-5.82-0.973
							s-4.427,0.379-5.82,0.973v-17.513C360.978,467.536,363.069,467.157,365.405,467.157z"/>
						<polygon style="fill:#CCCCCC;" points="372.845,469.74 372.845,486.781 360.876,486.781 360.876,487.713 356.685,487.713 
							356.685,486.781 344.716,486.781 344.716,469.74 343.107,469.74 343.107,488.39 355.814,488.39 355.814,489.322 
							361.747,489.322 361.747,488.39 374.454,488.39 374.454,469.74 						"/>
					</g>
				</g>
			</g>
			<path style="fill:#FFFFFF;" d="M350.106,467.26v13.004l2.049-1.773l2.049,1.773V467.26c1.496,0.154,2.808,0.451,3.771,0.871
				v17.513c-1.394-0.594-3.484-0.973-5.82-0.973s-4.427,0.379-5.82,0.973v-17.513C347.298,467.711,348.61,467.414,350.106,467.26z"
				/>
			<polygon style="fill:#D15E14;" points="350.106,465.999 354.205,465.999 354.205,480.264 352.156,478.491 350.106,480.264 			"/>
		</g>
	</g>
</g>
</svg>
